<svg width="50" height="75" viewBox="0 0 50 75" fill="none" xmlns="http://www.w3.org/2000/svg">
<path d="M2.00228 18.2211C2.06953 17.3384 1.57584 3.33064 3.88055 3.19507" stroke="#1C1C1C" stroke-width="2.93476" stroke-linecap="round"/>
<path d="M4 3.19497C6.90065 3.02434 9.60161 4.13411 12.5043 4.13411C21.7531 4.13411 31.1689 2.57476 40.4171 2.25586" stroke="#1C1C1C" stroke-width="2.93476" stroke-linecap="round"/>
<path d="M40 2.25591C44.7219 2.09309 45 0.677169 45 6" stroke="#1C1C1C" stroke-width="2.93476" stroke-linecap="round"/>
<path d="M45.1466 6.1167C45.1466 22.4988 44.3362 38.8061 44.2075 55.1598C44.1704 59.8712 43.2683 64.4442 43.2683 69.1423C43.2683 70.7619 42.3989 74.5335 43.7901 71.751" stroke="#1C1C1C" stroke-width="2.93476" stroke-linecap="round"/>
<path d="M42.6347 71.9826C40.6679 69.5239 38.3768 66.7536 37 64" stroke="#1C1C1C" stroke-width="2.93476" stroke-linecap="round"/>
<path d="M43.4608 71.4654C44.5478 69.2914 48.0278 62.6649 47.8434 63.0132C47.3316 63.9799 43.9146 73.3891 42 70.9958" stroke="#1C1C1C" stroke-width="2.93476" stroke-linecap="round"/>
</svg>
