<svg width="113" height="62" viewBox="0 0 113 62" fill="none" xmlns="http://www.w3.org/2000/svg">
<path d="M30.8054 2.06215C27.8181 5.10703 24.82 8.14119 21.8081 11.1618C16.6946 16.29 10.699 21.1487 6.57088 27.1489C2.83512 32.5789 0.414328 39.9916 3.76433 46.103C6.46902 51.0372 12.0808 55.5978 17.5277 57.2658C21.8151 58.5788 26.5793 58.8433 31.0054 59.3328C43.9635 60.7657 56.9911 60.0254 69.9305 58.612C81.602 57.3372 94.2815 55.4731 104.785 49.8041C106.716 48.7614 110.363 46.1836 110.816 43.5656C112.275 35.1415 102.194 26.6504 96.8357 22.62C81.3494 10.9724 23.5927 19.0718 4.34997 17.1455" stroke="#34A853" stroke-width="3" stroke-linecap="round"/>
</svg>
