<svg width="130" height="130" viewBox="0 0 130 130" fill="none" xmlns="http://www.w3.org/2000/svg">
<path d="M96.2172 68.5725C90.0321 82.4961 73.1539 95.4267 56.5655 91.3355C20.3861 82.4141 34.8593 26.41 71.8407 29.7784C91.0171 31.525 100.743 62.1831 95.5668 67.2904C88.7335 74.03 71.0449 75.8941 64.943 75.8941C58.7344 75.8941 42.9978 72.882 38.0394 69.2141C35.914 67.6417 49.8929 64.406 51.6902 64.0835C65.5826 61.5925 77.4776 61.0384 91.0173 65.0454" stroke="black" stroke-opacity="0.9" stroke-width="5.2" stroke-linecap="round" stroke-linejoin="round"/>
<path d="M81.2504 32.5C108.875 32.5 107.341 21.7475 111.15 12.025" stroke="black" stroke-opacity="0.9" stroke-width="5.2" stroke-linecap="round" stroke-linejoin="round"/>
<path d="M45.249 35.022C24.6998 35.022 22.0998 20.15 20.1495 12.0251" stroke="black" stroke-opacity="0.9" stroke-width="5.2" stroke-linecap="round" stroke-linejoin="round"/>
<ellipse cx="73.9377" cy="70.85" rx="2.7625" ry="5.85" transform="rotate(-180 73.9377 70.85)" fill="#171717"/>
<ellipse cx="59.9621" cy="70.2001" rx="2.7625" ry="0.975" transform="rotate(-180 59.9621 70.2001)" fill="#171717"/>
</svg>
