<svg width="108" height="108" viewBox="0 0 108 108" fill="none" xmlns="http://www.w3.org/2000/svg">
<path d="M34.8078 59.1757C35.1998 49.5453 42.112 38.0063 52.8215 36.5456C76.1788 33.3591 80.7214 69.6696 58.1869 76.309C46.5019 79.7518 33.6354 63.9884 35.4892 59.7781C37.9369 54.2216 47.9054 49.0021 51.494 47.5798C55.1454 46.1326 65.1024 44.2358 68.8735 45.2371C70.49 45.6665 63.0231 50.8279 62.0412 51.4365C54.4515 56.1398 47.585 59.2384 38.6881 60.0379" stroke="black" stroke-opacity="0.9" stroke-width="3.28965" stroke-linecap="round" stroke-linejoin="round"/>
<path d="M52.0192 76.9017C35.7725 83.341 39.1812 89.3071 39.2073 95.913" stroke="black" stroke-opacity="0.9" stroke-width="3.28965" stroke-linecap="round" stroke-linejoin="round"/>
<path d="M72.6035 67.0269C84.6889 62.2368 89.6846 70.3772 92.7255 74.701" stroke="black" stroke-opacity="0.9" stroke-width="3.28965" stroke-linecap="round" stroke-linejoin="round"/>
<ellipse cx="47.3799" cy="52.643" rx="1.74763" ry="3.70086" transform="rotate(-21.6209 47.3799 52.643)" fill="#171717"/>
<ellipse cx="55.5987" cy="49.3854" rx="1.74763" ry="3.70086" transform="rotate(-21.6209 55.5987 49.3854)" fill="#171717"/>
</svg>
