<svg width="64" height="58" viewBox="0 0 64 58" fill="none" xmlns="http://www.w3.org/2000/svg">
<path d="M23.5469 6.22338C36.9674 7.05357 35.7169 26.4705 36.3686 26.8781C37.0203 27.2857 54.278 14.8962 60.983 23.0371C67.688 31.178 27.6519 50.2573 26.1253 47.6576C19.9801 37.193 10.1264 5.39319 23.5469 6.22338Z" stroke="#4A3AFF" stroke-width="2.58137" stroke-linecap="round"/>
<path d="M18.5119 12.4297C19.9397 12.3896 20.9326 13.6759 22.3033 14.0034C25.4517 14.7556 28.7205 15.2244 31.8988 15.8683C32.0586 15.9006 34.5623 16.2523 33.9799 16.8073C33.3698 17.3889 32.2734 17.4314 31.4935 17.4831C29.7414 17.5993 28.1357 17.1737 26.5869 16.4103C26.0414 16.1414 25.2345 15.8762 24.9506 15.2911C24.742 14.8611 25.374 14.0162 25.5614 13.6646C25.883 13.0608 26.4185 12.8165 27.0108 12.5209C27.2235 12.4148 27.7908 12.301 27.6146 12.1414C27.3227 11.8768 26.1787 11.8367 25.8116 11.7301C22.7809 10.8496 19.754 9.94632 16.6894 9.1869C15.8687 8.98351 15.0195 8.75843 14.1719 8.69262C13.735 8.65869 13.9927 8.67335 14.2828 8.59099C15.3549 8.28666 16.5252 8.28772 17.6235 8.06708C18.2861 7.93396 18.5994 8.07932 19.1752 8.38919C19.6526 8.64611 23.0282 10.2943 20.9341 10.8626C20.6999 10.9261 20.4646 11.0237 20.7727 11.2605C21.5406 11.8509 22.9418 11.4649 23.8138 11.3618C24.4719 11.2839 23.6141 11.4715 23.4387 11.5415C22.6245 11.8667 25.1871 11.3721 26.0639 11.3769C26.6515 11.3802 27.2216 11.4581 27.7994 11.5552C28.0023 11.5893 28.5954 11.692 28.3925 11.726C27.0589 11.9494 25.746 11.9598 24.4083 11.7764C23.0014 11.5835 25.7555 10.9464 25.3439 10.9352C23.8759 10.8951 22.3532 10.4937 20.9711 10.0125C20.2132 9.74867 22.3504 9.79283 22.6032 9.76647C22.9273 9.73266 23.2618 9.64725 23.5881 9.63551C24.0617 9.61848 22.6464 9.7418 22.175 9.78978C20.6118 9.9489 21.8192 9.83615 22.631 9.74541C23.4862 9.64981 24.346 9.5979 25.2036 9.52886C25.6802 9.4905 27.1133 9.12553 27.5784 9.43184C28.1036 9.77771 26.2705 9.56637 25.7597 9.93322C25.3569 10.2225 27.5437 9.5657 27.2471 9.96312C27.0601 10.2136 26.213 10.288 26.0092 10.3254C24.9237 10.5247 23.8207 10.7162 22.7206 10.8142C22.0076 10.8776 24.3352 10.7402 24.5906 10.7548C25.1581 10.7874 27.6423 10.8597 27.9663 11.4985C28.0402 11.6444 23.3604 11.9368 23.0996 11.93C21.5304 11.8892 16.8843 11.422 18.4424 11.2319C20.036 11.0375 21.7618 10.5201 23.3614 10.8001C23.5759 10.8376 25.7879 11.6417 25.6548 11.7136C24.3177 12.4355 22.0283 12.1279 20.8461 11.3054C20.3684 10.9731 20.0754 10.5261 19.6553 10.1454C19.5993 10.0946 19.7521 10.2725 19.8234 10.2977C20.0001 10.3599 20.2066 10.2984 20.3806 10.2945C21.7555 10.2635 23.1548 10.2269 24.5319 10.2223C24.7382 10.2216 26.9532 10.6701 26.8752 10.7175C26.6944 10.8274 26.3936 10.8312 26.1934 10.8677C25.9684 10.9086 25.4244 11.2298 25.5255 11.0247C25.6986 10.6737 26.7954 10.6238 25.7821 10.8212C24.5125 11.0686 23.3135 10.9451 22.0549 10.7378C21.6901 10.6777 22.1067 10.1932 22.2386 9.96009C22.8642 8.85488 23.686 10.0149 24.1999 10.6491C24.6934 11.258 24.4399 11.2215 23.6009 11.2829C22.5751 11.3579 21.4384 11.375 20.4145 11.3531C20.209 11.3487 21.1292 10.552 21.3778 10.4909C21.8229 10.3814 22.1227 10.3259 22.5322 10.1395C22.9742 9.93838 21.6482 10.1013 21.529 10.1139C20.3195 10.2413 18.8498 10.686 17.6838 10.1112C17.1851 9.86541 17.8364 9.04434 17.9964 8.71976C18.3477 8.00701 18.6064 7.58287 18.8179 8.6385C18.8773 8.93522 19.0223 9.07691 18.9475 9.39704C18.8383 9.86457 18.5829 10.2384 19.1969 10.3883C20.5873 10.7275 21.445 9.85561 22.7529 9.74472C23.5099 9.68054 22.6005 10.2789 22.3665 10.4052C22.1575 10.518 20.29 10.722 20.2356 10.5182C20.1063 10.034 21.2106 9.52991 21.4903 9.43491C22.0477 9.2456 23.3764 8.18071 23.0952 8.69791C22.7879 9.26324 21.8935 9.52412 21.3208 9.63788C20.6715 9.76685 20.8746 9.15813 21.1908 8.82709C21.3457 8.66492 22.9437 7.89559 23.0238 8.38485C23.1471 9.1378 20.9431 9.06096 20.5816 8.88278C20.3658 8.77639 21.6521 9.12764 21.9422 9.27563C23.1201 9.87647 23.0287 11.1164 21.7404 11.781C21.2688 12.0243 19.6057 11.976 21.2106 11.7108C22.5106 11.4961 23.9763 11.244 25.2814 11.5729C25.9454 11.7403 24.9059 12.3988 25.645 12.4381C26.9642 12.5082 28.2137 12.4319 29.5366 12.646C29.6969 12.6719 31.4155 12.8022 31.0274 13.2854C30.6312 13.7787 30.0374 13.8406 29.453 13.8724C28.4469 13.9272 26.8722 14.0881 25.9441 13.5927C25.6916 13.458 27.1204 12.6144 27.2269 12.558C27.995 12.1517 30.4675 11.3011 29.6597 11.6213C29.3913 11.7277 28.5954 12.0393 28.8816 12.0018C29.2275 11.9566 30.2155 11.693 29.8688 11.6549C29.2525 11.5873 28.4421 11.9429 27.8653 12.126C27.149 12.3534 28.0247 11.8232 28.2217 11.7026C28.5816 11.4821 27.7626 11.6747 27.6678 11.6813C27.6432 11.683 27.8174 10.7973 27.7876 10.6984C27.7204 10.4758 26.6947 9.49847 26.6907 9.50652C26.654 9.58099 26.9468 9.76338 26.9885 9.8183C27.1235 9.99618 27.1095 10.3087 27.2498 10.4507C27.6971 10.9033 28.0321 11.3156 28.2475 11.9497C28.2978 12.0978 28.6403 13.2938 28.6731 13.3056C28.8574 13.3724 29.2225 11.731 29.2343 11.5331C29.2567 11.1566 29.4723 10.8395 29.5032 10.4415C29.5591 9.72203 29.7563 12.1233 29.2019 12.5852C29.0882 12.6799 28.4486 11.6134 28.3773 11.5101C28.1485 11.1787 27.8739 10.9443 27.5993 10.6577C26.7859 9.80885 25.764 9.59427 24.6794 9.21836C23.842 8.92812 25.6908 8.7792 25.9874 8.92537C26.1701 9.01546 26.2117 9.36975 26.28 9.54716C26.4699 10.0406 26.9777 10.3627 27.238 10.8269C27.652 11.5651 27.9865 12.3794 28.5808 12.9997C28.6484 13.0702 28.5622 13.0171 28.5042 13.014C28.1532 12.9954 27.7827 13.0994 27.4535 13.208C27.1246 13.3166 26.335 13.5652 26.935 13.9076C28.8487 14.9995 31.3557 15.6257 32.9512 17.2032C33.5851 17.8299 32.8225 17.9572 32.2799 17.9663C30.6134 17.9943 28.8898 17.9306 27.2453 17.6639C26.4663 17.5376 25.6857 17.3949 24.9128 17.2347C24.6637 17.1831 24.0019 17.0134 24.2283 16.8973C24.8394 16.5839 26.8549 16.7507 26.2388 16.4471C26.1658 16.4111 25.5524 16.5387 25.5149 16.5417C24.7418 16.6033 23.9302 16.5582 23.1803 16.3459C22.6691 16.2013 22.8439 16.0016 23.2715 15.8439C25.096 15.1706 27.2957 15.4154 29.1804 15.5702C30.6425 15.6902 32.1787 15.8288 33.5937 16.2522C33.7634 16.303 35.4672 16.9484 34.3229 17.098C31.927 17.4112 29.3471 17.0466 26.9887 16.6344C26.7734 16.5968 26.5573 16.5629 26.3437 16.5161C26.2258 16.4903 26.5866 16.5031 26.706 16.5211C28.175 16.742 29.6317 17.0677 31.0819 17.3845C32.5683 17.7091 34.0682 18.0254 35.5287 18.4564C36.4751 18.7357 36.4368 18.8642 35.4475 18.8679C31.742 18.8818 28.0484 18.1088 24.566 16.8814C24.203 16.7535 21.6099 16.376 22.8076 15.7281C23.7126 15.2385 26.9121 15.4284 25.8852 15.4913C24.3475 15.5854 22.9438 15.5308 21.4324 15.2065C21.2286 15.1627 20.6154 15.0976 20.8221 15.0706C21.8664 14.934 22.9114 14.8166 23.9656 14.7881C25.4812 14.7472 26.9879 14.8335 28.4879 15.0551C28.8285 15.1054 29.734 15.2792 30.1337 15.3802C30.2949 15.4209 30.7026 15.4665 30.5876 15.5866C30.222 15.9684 28.4337 16.0618 28.1142 16.0951C26.7624 16.2361 25.1585 16.3789 23.8261 15.987C22.292 15.5359 26.2889 12.8163 27.1996 13.2652C27.5102 13.4183 26.7762 13.8186 26.5179 14.0492C25.8294 14.6638 25.1229 15.242 24.4874 15.9136C23.9992 16.4295 23.5229 16.9222 22.9701 17.3711C22.6475 17.6331 22.1605 17.8735 22.0978 18.3304C21.9969 19.0665 22.3862 18.2033 22.4826 18.0078C23.101 16.7534 23.6658 15.4396 24.4713 14.2907C24.5266 14.2118 24.6992 13.9883 24.6196 14.0426C23.8113 14.5936 22.854 14.8697 21.9797 15.2939C20.642 15.943 19.4604 16.759 18.2697 17.6415C17.7638 18.0164 17.3852 18.3254 16.8683 18.6525C16.7565 18.7233 16.5171 18.9321 16.5 18.8009C16.4706 18.5764 17.1179 17.8248 17.1766 17.7452C17.8272 16.8642 18.5238 16.0187 19.224 15.1771C19.908 14.3552 20.5896 13.5269 21.2999 12.7274C21.6841 12.2949 21.9292 12.0916 21.5999 12.8058C21.1825 13.7111 20.7174 14.5939 20.3125 15.5053C20.1025 15.9782 19.4082 17.1967 19.6707 17.7938C19.7595 17.9958 19.9468 17.4464 20.0507 17.2518C20.4634 16.4796 20.9346 15.8171 21.5927 15.2334C21.9496 14.9169 23.5475 13.0981 22.6545 14.5239C21.717 16.0207 20.7487 17.4952 20.0614 19.1325C19.97 19.3501 20.0077 19.404 20.1522 19.1773C20.5452 18.5605 20.8512 17.539 21.6041 17.2534C22.1579 17.0434 22.7366 17.4941 23.1051 17.8371C23.752 18.439 23.2835 19.371 23.1249 20.1043C22.4963 23.0106 21.9511 26.0177 21.8516 28.993C21.8502 29.0349 21.7373 30.6914 21.9806 30.8626C22.0879 30.938 23.2322 28.535 23.2559 28.487C24.0387 26.899 24.8215 25.311 25.6043 23.723C26.3669 22.1761 24.3052 26.9281 23.8625 28.595C23.5369 29.821 23.2711 31.0607 23.0476 32.3089C23.0443 32.3276 22.6347 33.8687 23.0792 32.967C24.122 30.8516 25.8978 29.3185 26.9964 27.2399C27.2651 26.7315 27.5065 26.2051 27.7609 25.6891C28.1826 24.8337 27.0653 27.47 26.6159 28.3113C26.1264 29.2275 25.7342 29.6095 24.8389 30.0314C24.5365 30.1739 23.8612 30.7712 24.1907 31.2054C24.2229 31.2478 24.3071 31.1979 24.3437 31.1592C24.6184 30.8692 25.1749 29.7946 25.2512 29.6529C26.2554 27.7903 27.1854 25.8887 28.1275 23.9943C29.1414 21.9554 32.2799 15.8877 31.2731 17.9302C29.6926 21.1365 28.112 24.3427 26.5315 27.549C26.0401 28.5457 25.5059 29.5378 25.0578 30.5561C24.7288 31.3038 26.0055 29.2227 26.4185 28.5179C27.2413 27.1139 27.9142 25.648 28.5812 24.1659C28.9355 23.3786 30.1856 21.1579 29.5847 21.7779C27.7161 23.7061 26.5207 26.7394 24.1139 28.0851C23.875 28.2186 23.4338 28.6342 23.3458 28.375C23.1886 27.9121 24.4038 25.938 24.5492 25.6167C26.085 22.2235 27.1782 18.6279 28.8236 15.2901C30.451 11.9887 24.5275 21.2695 22.2842 24.1876C21.1642 25.6446 21.8548 24.5342 22.4038 23.7864C23.992 21.623 25.6408 19.4976 27.24 17.34C27.5219 16.9596 27.6051 16.7772 27.4736 17.377C27.0156 19.4663 26.568 21.5563 26.1821 23.6605C25.8513 25.4646 25.5591 27.2745 25.3351 29.0952C25.2139 30.0805 24.7669 31.7183 24.9796 32.7404C25.0151 32.9112 25.2876 32.548 25.3747 32.3968C26.0097 31.2938 26.4951 30.1042 27.1003 28.9842C27.7347 27.8105 28.4599 26.7067 29.2093 25.6043C29.8187 24.7079 30.6902 23.7376 31.0737 22.7029C31.1163 22.588 29.2442 24.5291 29.1827 24.6014C26.6643 27.563 24.2787 30.6075 21.8465 33.6358C20.7382 35.0157 22.4548 32.1326 22.5442 31.9739C23.9414 29.493 25.2444 26.9894 26.5034 24.4354C27.4754 22.4636 26.3548 24.7145 26.0523 25.3505C25.0355 27.4883 23.959 29.901 23.7336 32.2911C23.7027 32.6187 23.6356 33.502 23.868 33.2691C24.7705 32.3647 25.3214 30.632 25.867 29.531C27.3033 26.6329 28.7274 23.7286 30.1575 20.8273C30.6825 19.7623 28.8055 22.7847 28.0352 23.6884C26.7667 25.1765 25.4729 26.6936 24.5372 28.424C23.875 29.6487 25.7044 25.8957 26.2572 24.6179C27.131 22.5979 28.0718 20.6198 29.0446 18.6463C29.9414 16.827 27.3573 22.3413 26.68 24.2533C26.4329 24.951 26.2118 25.6627 26.0931 26.3951C25.9451 27.3075 26.5413 26.266 26.6694 26.0714C27.8576 24.2672 29.1578 22.1807 29.861 20.1255C30.2553 18.973 28.2205 21.9428 27.5714 22.9735C26.9201 24.0077 26.346 25.0719 25.8062 26.1669C25.7961 26.1873 25.6235 26.5728 25.7785 26.2053C26.1941 25.2204 26.5339 24.2078 26.8795 23.1968C27.1815 22.3136 27.4817 21.4311 27.8225 20.5619C27.9612 20.208 28.0732 19.9827 27.8358 20.4643C27.0094 22.1408 26.183 23.8173 25.3566 25.4937C25.2534 25.7029 24.736 26.7526 25.15 25.9129C25.7652 24.6647 26.3432 23.3389 27.2505 22.2683C27.9387 21.456 26.5854 26.4524 26.9341 25.4465C27.1562 24.8055 27.2764 24.1421 27.5187 23.5032C27.8722 22.5706 28.5911 21.236 28.4334 20.2032C28.3904 19.9213 27.8798 20.4081 27.6834 20.6149C26.9795 21.3566 26.3555 22.1755 25.6835 22.9459C25.5248 23.1278 24.3947 24.8857 24.8052 24.0758C25.7153 22.2802 26.603 20.4677 27.4494 18.6414C27.5669 18.3878 29.5058 14.4145 27.846 16.0932C26.8512 17.0992 25.992 18.2434 25.0569 19.3028C23.3486 21.2381 21.5218 23.0607 19.7109 24.8987C19.459 25.1544 18.7531 26.0789 18.3359 26.2788C18.0164 26.4319 18.6123 25.5381 18.9405 25.4046C19.6077 25.1333 20.2223 25.2235 20.8244 24.7183C21.6048 24.0634 22.0234 23.0609 22.4609 22.1735C22.6331 21.8242 23.1601 20.7818 22.9774 21.1257C22.4512 22.1163 21.9194 23.1043 21.42 24.1089C21.2822 24.386 19.614 27.4149 19.8684 27.5031C20.2823 27.6465 20.6987 27.1742 20.9344 26.9258C22.0944 25.7034 23.0501 24.2722 24.0533 22.9237C24.4615 22.3751 24.8707 21.7244 25.3919 21.2653C25.7156 20.98 25.1542 22.0997 24.9634 22.4867C24.7999 22.8183 22.5061 26.979 22.7049 27.1387C22.8207 27.2318 25.2628 22.5135 25.4318 22.1706C25.7375 21.5505 26.1198 20.911 26.3719 20.2636C26.9338 18.8202 24.8508 22.9626 24.124 24.3304C23.3683 25.7527 22.6443 27.1904 22.003 28.6682C21.9505 28.7894 21.2589 30.1009 21.4137 30.3921C21.6249 30.7893 21.9992 29.6975 22.1981 29.294C23.0466 27.5729 23.6294 25.7032 24.2748 23.9012C24.6359 22.893 25.0091 21.8839 25.3304 20.8616C25.3581 20.7734 25.4353 20.4398 25.2528 20.7018C23.9274 22.6048 22.8842 24.8022 21.8606 26.8788C20.9832 28.6586 23.5391 23.2626 24.0653 21.3494C24.3136 20.4469 24.5283 19.5353 24.7326 18.622C24.9179 17.7936 25.1148 16.9658 25.2339 16.1254C25.2918 15.7171 25.4413 15.2599 25.2618 14.8888C24.9455 14.2351 24.121 15.8084 23.675 16.3815C22.9814 17.2728 22.2144 18.3274 21.5353 19.2426C21.1903 19.7076 20.8042 20.3402 20.3771 20.7642C20.0159 21.1227 20.803 19.8397 21.0241 19.3813C21.6831 18.0145 23.3767 13.8774 22.4067 15.0442C22.0026 15.5303 21.715 16.3946 21.4491 16.9339C20.8167 18.2167 20.1734 19.4948 19.5587 20.7862C19.3444 21.2367 18.5691 22.3334 19.0477 22.1928C19.5824 22.0357 20.2027 20.7058 20.4373 20.325C21.2434 19.017 23.3753 14.9288 22.6959 16.3069C21.5272 18.6777 20.4535 21.1003 19.5432 23.5831C19.1739 24.5903 19.1778 25.0289 19.7365 23.8955C20.1463 23.0642 20.5561 22.233 20.9658 21.4017C21.1587 21.0104 21.6469 19.8122 21.5723 20.242C21.378 21.3606 20.8679 22.6012 21.101 23.7519C21.1399 23.944 23.6616 21.2489 23.9237 20.9322C24.4995 20.2364 25.9238 17.9421 25.5484 18.7636C24.7093 20.6001 24.3851 22.6421 23.9479 24.5996C23.609 26.1167 24.9911 23.6565 25.122 23.4332C25.7587 22.3469 27.7266 19.1815 26.827 20.0625C26.3366 20.5427 24.6458 21.9977 24.7003 22.7738C24.7219 23.0812 25.0541 22.2671 25.1975 21.9943C25.5222 21.3766 25.9226 20.7052 26.0919 20.0214C26.131 19.8631 25.7662 20.1212 25.6543 20.2398C24.966 20.969 24.2807 21.718 23.6539 22.5011C22.746 23.6353 23.6835 22.2296 23.9282 21.7333C24.2869 21.0056 25.5762 19.0807 24.8768 19.4919C23.3985 20.3609 22.4826 22.0453 21.0581 22.9407C20.0055 23.6023 22.5559 20.9546 23.3507 19.9986C23.8832 19.358 22.2735 21.2695 21.7279 21.899C21.6197 22.0238 21.3141 22.4046 21.4481 22.3081C22.5335 21.5258 23.5659 20.643 24.6034 19.7999C25.4613 19.1028 27.6855 16.6552 27.0462 17.557C26.56 18.2429 26.097 18.919 25.7242 19.6752C25.4658 20.1994 26.235 18.6202 26.5549 18.131C26.6742 17.9485 27.0284 17.4276 26.8441 17.5443C26.1631 17.9753 25.5391 18.5526 24.9162 19.0598C24.4772 19.4172 24.049 19.7764 23.6407 20.1676C23.524 20.2794 24.1178 19.1294 24.1327 19.099C24.4693 18.4163 24.8031 17.7334 25.1696 17.0661C25.3105 16.8096 25.35 16.7836 25.2038 16.9614C24.7327 17.5347 24.7736 17.4891 24.1934 18.1304C23.3258 19.0897 22.4513 20.0423 21.587 21.0047C21.1954 21.4408 20.6082 22.3226 20.0603 22.6398C19.7242 22.8344 20.4816 21.9855 20.7236 21.6817C21.7246 20.4253 22.8195 19.2112 24.0614 18.1869C24.3635 17.9377 27.6141 15.4977 27.5224 16.7672C27.2447 20.611 26.1139 24.4639 25.4209 28.2518C25.3622 28.5729 25.0869 29.4343 25.3394 29.2275C26.4794 28.2939 27.3367 26.687 28.2337 25.5402C29.0301 24.522 29.856 23.5332 30.6967 22.5518C30.8094 22.4203 31.124 22.0238 31.0673 22.1875C30.0853 25.0209 29.3079 27.9592 28.5006 30.8466C28.5006 30.8466 27.9885 32.3945 28.12 32.5345C28.2723 32.6967 28.3793 32.1719 28.4895 31.9787C28.8503 31.3458 29.0217 31.0186 29.3718 30.3297C30.0951 28.9068 30.7948 27.4709 31.4965 26.0372C31.7477 25.5241 32.0426 25.0276 32.2262 24.4866C32.2643 24.3743 32.0296 24.6252 31.9558 24.718C30.3353 26.7588 28.6755 28.7747 27.013 30.7819C26.9122 30.9036 26.8109 31.0251 26.705 31.1424C26.6598 31.1925 26.7565 31.0165 26.7946 30.9608C27.8766 29.3753 29.0195 27.8314 30.1325 26.2678C30.9982 25.0518 31.87 23.8365 32.6856 22.5859C32.7638 22.4659 32.9926 22.1038 32.9029 22.2154C32.7231 22.4394 32.5723 22.6855 32.3949 22.9114C29.5246 26.5651 26.1569 29.7928 23.4029 33.5434C23.3534 33.6107 22.6809 34.6874 23.1707 33.7502C23.8157 32.5158 24.4945 31.2938 25.2993 30.1542C26.3057 28.7294 27.5021 27.4857 28.6903 26.2168C31.0099 23.7395 28.59 26.3176 30.0196 24.7708C30.2508 24.5206 30.1605 24.6258 30.0135 24.9241C28.7807 27.4248 27.548 29.9256 26.3152 32.4263C26.1121 32.8385 26.359 32.3814 26.4881 32.1989C27.5142 30.7487 28.7162 29.4335 29.9062 28.1185C30.6381 27.3097 31.3426 26.4088 32.1353 25.6574C32.6613 25.1588 31.5857 27.0011 31.2514 27.6442C30.2036 29.6596 26.9058 35.5975 28.2314 33.7529C29.6854 31.7298 31.268 29.8019 32.7289 27.7821C33.128 27.2304 32.8031 27.7191 32.7464 27.7995C32.0666 28.7626 31.351 29.702 30.6099 30.6188C29.9669 31.4141 28.096 33.8187 28.5749 32.9151C29.4392 31.2846 30.9892 29.8329 32.2209 28.4781C33.6667 26.8877 32.0865 28.8796 31.6548 29.3799C29.478 31.9027 27.0479 34.2843 25.0486 36.9508C23.0132 39.6657 29.3022 31.6594 31.5558 29.1227C31.8871 28.7498 32.2214 28.3794 32.5561 28.0095C32.7683 27.775 32.9768 27.5369 33.1964 27.3093C33.2554 27.2482 33.3216 27.095 33.3906 27.1445C33.4458 27.1842 31.1079 30.4721 31.1072 30.4732C29.705 32.531 28.1844 34.6585 27.0789 36.901C26.9334 37.1962 27.4199 36.3373 27.6106 36.0691C28.5609 34.732 29.7008 33.547 30.8042 32.3382C31.5974 31.4694 32.3907 30.6001 33.1473 29.6989C33.2242 29.6072 33.3 29.5145 33.3721 29.419C33.4824 29.2726 33.1244 29.6893 33.0052 29.8285C31.3602 31.7502 29.8501 33.9389 27.9634 35.6352C27.8099 35.7732 28.0698 35.2314 28.1726 35.0524C29.0477 33.5277 30.0441 32.0743 30.9614 30.575C31.5655 29.5878 32.163 28.5922 32.7313 27.5836C32.78 27.4972 32.9036 27.2335 32.8342 27.3044C32.5187 27.6265 32.2434 27.9855 31.9483 28.3264C30.1817 30.3674 28.1194 32.2977 26.5778 34.5181C25.363 36.2678 29.3589 31.2908 30.7579 29.6845C31.5804 28.7402 32.3768 27.7756 33.1797 26.8148C34.3299 25.4384 32.9108 27.0927 32.7435 27.277C29.9313 30.3749 26.8708 33.3121 24.2279 36.5549C23.9133 36.9409 23.9515 36.8758 24.2166 36.4017C24.7712 35.41 25.4028 34.4724 26.0848 33.563C27.0065 32.3342 28.0029 31.1715 29.0078 30.0114C29.1819 29.8103 29.6214 29.3244 29.8103 29.0351C29.8568 28.9639 29.6544 29.1111 29.5952 29.1721C28.0553 30.7601 26.8323 32.4393 24.5839 32.9794C24.3059 33.0462 24.0085 33.2227 24.2421 32.8978C25.2486 31.4972 26.4647 30.2434 27.6262 28.9743C28.6815 27.8212 29.7628 26.6872 30.762 25.4841C31.2562 24.889 31.9002 24.0698 30.7394 25.1777C29.7282 26.1428 28.7526 27.14 27.8062 28.1687C26.936 29.1146 25.9544 30.6087 24.7372 31.1535C23.3055 31.7944 26.8325 28.8184 27.8974 27.6667C28.5725 26.9366 29.2301 26.1922 29.8806 25.4403C30.5249 24.6955 30.0155 25.3483 29.8014 25.601C28.4323 27.2166 27.0079 28.8017 25.5721 30.3582C25.498 30.4385 23.8653 31.8704 24.6356 31.0426C27.2684 28.2134 29.6055 25.1131 32.3501 22.3857C32.6536 22.0842 32.9617 21.7987 32.6598 22.3387C32.0987 23.3426 31.4753 24.3112 30.9143 25.316C30.1687 26.6516 28.0003 30.6946 28.7744 29.3753C30.3417 26.704 31.7371 23.9641 33.1061 21.1868C34.2309 18.9051 32.6104 22.1924 32.3795 22.6607C31.8274 23.7807 31.2753 24.9007 30.7232 26.0207C30.4568 26.5612 29.5002 28.0331 29.9803 27.6688C31.1987 26.7442 31.9448 24.5149 32.4835 23.1895C32.9099 22.1406 33.2938 21.0588 33.5101 19.9446C33.6885 19.0254 33.3505 19.6407 33.1343 20.0199C32.1468 21.752 29.5453 27.142 30.4269 25.3536C31.6205 22.9322 32.8185 20.5016 33.5717 17.8998C33.6131 17.7566 33.6111 17.3552 33.503 17.4578C32.7015 18.2193 32.0772 19.2753 31.5054 20.2067C30.9775 21.0665 30.5217 21.967 30.0925 22.8791C29.9589 23.1632 29.3216 24.5461 30.1132 23.4537C31.4079 21.667 32.5405 19.3693 32.9581 17.1893C33.0914 16.4936 31.8926 18.4389 31.8787 18.4631C31.2396 19.5692 29.3594 22.8922 30.1286 21.8724C31.1717 20.4894 31.9691 18.8039 32.7076 17.2394C33.6121 15.3234 30.6933 20.9695 29.779 22.8809C29.5867 23.2831 28.8778 24.4085 28.934 24.965C28.9457 25.0803 30.1848 23.3081 30.1855 23.307C31.2721 21.4129 34.2536 15.5782 33.2002 17.4909C32.1308 19.4326 31.0559 21.3859 30.1373 23.4048C29.3708 25.0893 32.5388 20.5719 33.5222 19.0042C33.8209 18.5279 33.7235 18.6605 33.5949 18.9271C32.8528 20.4656 32.1357 22.019 31.4548 23.5854C31.2879 23.9695 31.1218 24.3541 30.9703 24.7445C30.8689 25.0058 30.5365 25.5369 30.8147 25.5709C31.2007 25.6179 31.9269 24.576 32.0794 24.3969C32.3955 24.0257 33.1327 22.9348 32.5458 24.349C32.3721 24.7676 31.5518 26.539 31.3869 26.9643C31.1934 27.4631 30.9694 27.977 31.5669 27.3917C32.342 26.6323 32.9829 25.7097 33.6563 24.8617C34.147 24.2437 33.9898 24.467 33.7543 24.9447C33.1413 26.1881 31.2263 29.8765 31.9294 28.6818C32.3346 27.9933 32.7594 27.3187 33.1927 26.6476C33.9488 25.4764 33.3028 26.3275 32.8733 26.8375C32.2668 27.5576 31.6641 28.2806 31.029 28.9759C30.5382 29.5133 30.6768 29.2586 30.9409 28.7849C31.4757 27.8256 32.0553 26.8919 32.6036 25.9404C33.1433 25.0037 34.0233 23.8573 34.3412 22.8029C34.4635 22.3973 33.8342 23.4819 33.5668 23.8103C32.7441 24.8205 31.8558 25.7749 31.0761 26.8197C30.8466 27.1272 30.5793 27.5449 31.0066 26.855C31.4018 26.2167 31.8078 25.5849 32.1799 24.9327C32.73 23.9686 32.2566 24.6747 31.979 25.1289C31.2568 26.3105 32.6131 24.6127 32.8488 24.3508C33.4787 23.6511 32.5267 25.2001 32.4403 25.391C31.8439 26.7072 34.0715 22.9958 34.7251 21.7071C34.9411 21.2813 35.1476 20.85 35.3587 20.4218C35.5856 19.9616 34.6336 21.1479 34.2677 21.5077C32.4863 23.2593 31.1721 25.5381 30.0294 27.7452C29.941 27.916 29.6802 28.4243 29.8026 28.2758C30.4848 27.4478 31.1461 26.5923 31.7734 25.7222C32.0082 25.3965 32.7243 24.4561 32.4015 24.6946C31.9855 25.002 31.6134 25.6509 31.326 26.0486C30.0613 27.7982 28.8547 29.6332 27.9685 31.6089C27.2129 33.2935 29.9003 28.4344 30.5355 26.7009C30.9448 25.584 30.5383 26.0923 30.0863 26.7139C28.9216 28.3155 27.8667 29.9937 26.9593 31.7539C26.6932 32.27 26.0003 33.8612 26.3101 33.3702C26.595 32.9187 26.8186 32.3404 26.9248 31.8238C27.0015 31.4508 26.7823 31.6236 26.6112 31.7907C25.7791 32.6033 25.1631 33.6643 24.6912 34.7168C24.5481 35.0359 23.4328 38.0665 24.4989 36.428C25.1203 35.4729 25.677 34.4793 25.8955 33.3482C26.1242 32.1646 25.3624 33.3057 25.1624 33.6553C24.701 34.4618 23.8374 37.0932 24.359 36.3243C25.7196 34.3184 26.2629 31.6043 26.6422 29.262C26.6425 29.2599 27.051 27.519 26.7743 27.3735C26.5882 27.2756 26.431 27.6312 26.317 27.8079C26.0464 28.2274 25.544 29.2326 25.3658 29.5966C24.6991 30.9586 24.0475 32.3384 23.5574 33.7759C23.4782 34.0081 22.8537 35.5925 23.1168 35.9203C23.4841 36.3782 26.3289 31.227 26.522 30.8091C26.6902 30.445 27.2056 29.3686 26.9685 29.692C26.2307 30.6983 25.8731 32.3231 25.5097 33.4792C25.4632 33.6269 24.1135 37.9246 25.4144 36.9662C26.0605 36.4902 28.7368 34.5173 28.3136 33.5156C28.1394 33.1033 27.6079 34.0829 27.3437 34.4441C26.7215 35.2944 25.4477 36.651 25.3003 37.7261C25.2132 38.3618 26.0314 36.6659 26.3151 36.0903C26.6528 35.4052 26.6714 35.1053 26.0691 35.7086C25.6476 36.1308 25.263 36.593 24.91 37.0735C24.7021 37.3566 24.3464 37.9376 24.879 37.1364C25.4627 36.2584 26.0586 35.3809 26.6055 34.4796C26.9201 33.9611 26.8447 34.0174 26.4589 34.4247C25.9356 34.9772 25.4404 35.5555 24.929 36.1191C24.7855 36.2773 24.6415 36.4351 24.4963 36.5917C24.4561 36.6351 24.5733 36.5017 24.614 36.4587C25.3515 35.6792 26.1458 34.9577 26.8894 34.1854C27.1822 33.8813 29.1717 31.5146 27.8859 33.0095C27.8321 33.072 26.7678 34.3881 26.579 34.1106C26.2686 33.6541 26.8797 32.1715 26.9939 31.7189C27.0665 31.4313 27.4207 30.7096 27.1561 30.8438C26.569 31.1415 25.9922 31.9644 25.528 32.4029C24.9093 32.9873 24.2598 33.5472 23.7061 34.1965C23.4986 34.4398 22.9609 35.3751 23.5469 34.3785C24.1552 33.344 24.735 32.2882 25.1657 31.165C25.3424 30.7041 25.9523 29.7867 25.464 29.7144C25.2799 29.6872 25.1551 29.9319 25.0412 30.0791C24.7692 30.4305 24.5437 30.8161 24.3161 31.1977C23.9383 31.8309 22.9183 33.7811 23.3661 33.1953C24.0872 32.2519 24.5396 30.9692 25.0262 29.898C25.248 29.4097 25.5627 28.8323 25.6928 28.2991C25.8188 27.7829 25.0798 29.1686 24.8122 29.6276C24.3798 30.3692 23.9946 31.1253 23.6653 31.9188C23.6286 32.0073 22.8407 34.2809 22.9471 34.2565C23.3299 34.1686 23.7442 33.1977 23.8282 32.9976C24.723 30.8649 25.7134 28.0028 25.5595 25.6633C25.4695 24.294 24.3764 24.7547 23.6699 25.3222C22.9542 25.8969 22.5753 26.7284 22.2405 27.5523C22.1001 27.8979 21.5974 28.8308 21.9052 28.62C22.3316 28.3281 22.5804 26.978 22.6811 26.6234C23.0143 25.4502 23.2947 24.2621 23.5631 23.0728C23.7464 22.2606 23.4224 22.8446 23.2574 23.2173C22.3683 25.2257 21.6585 27.9432 21.7329 30.1674C21.8109 32.5025 23.1729 25.6047 23.0035 23.2745C22.9627 22.713 22.2727 24.1447 22.0221 24.6488C21.3374 26.0262 20.6993 27.4241 20.0814 28.8323C19.9453 29.1425 19.5007 29.8331 19.5319 30.2112C19.5726 30.7034 20.2248 29.4883 20.4518 29.0497C21.5014 27.0217 22.1582 24.7777 22.4001 22.5082C22.4423 22.1117 21.502 23.8895 21.4058 24.0672C20.48 25.7778 19.1835 27.736 18.7136 29.6342C18.6408 29.9284 18.7818 29.8246 18.888 29.668C19.2911 29.0737 19.6331 28.403 19.9499 27.7603C20.0838 27.4888 20.2396 27.1768 20.3002 26.8737C20.37 26.5245 20.0244 27.5359 19.9576 27.8857C19.8559 28.4187 19.2082 32.5759 20.5605 31.0308C21.5265 29.9272 22.4239 28.4842 22.9834 27.1197C23.0472 26.9643 23.046 26.8142 22.8716 27.0472C22.257 27.8683 22.0178 28.936 21.8848 29.9297C21.7609 30.8549 21.7354 31.8019 21.7091 32.7345C21.6939 33.2721 22.396 31.8926 22.6245 31.4058C23.7049 29.1043 24.5551 26.013 24.3976 23.4407C24.3923 23.3545 24.3852 23.2013 24.2987 23.201C23.9788 23.1997 23.8502 23.666 23.6899 23.9428C22.9807 25.1675 22.5172 26.6367 22.3478 28.0393C22.2664 28.7132 22.3828 29.1659 22.8159 28.2875C23.8264 26.2375 24.5526 24.0194 25.364 21.8854C25.4839 21.5701 26.1112 20.378 26.0218 19.9521C25.9391 19.5577 25.4488 20.5264 25.2259 20.8622C24.637 21.7493 23.7912 23.1642 23.2867 24.0914C22.9623 24.6877 22.4046 25.5972 22.3591 26.3431C22.3153 27.0601 23.1845 25.1518 23.4492 24.484C24.1658 22.676 24.7418 20.8134 25.208 18.9258C25.4339 18.0109 25.7452 16.5192 25.8994 15.5504C25.9745 15.0791 26.2104 14.5482 25.9958 14.1218C25.7264 13.5866 25.0345 14.8598 24.6687 15.3344C23.618 16.6978 22.7953 18.1998 21.8475 19.6309C21.4181 20.2791 21.4418 20.1301 21.6589 19.5379C22.2475 17.9317 22.7728 16.368 23.0663 14.6748C23.3033 13.3079 23.4984 11.9117 23.6002 10.5271C23.6292 10.1323 23.652 9.85333 23.1797 10.0767C20.6723 11.2621 19.4303 13.9775 17.619 15.8967C17.259 16.2782 18.0547 14.9424 18.2866 14.4719C19.1012 12.8195 19.9427 11.1767 20.7035 9.49857C20.7841 9.32085 20.8739 9.14526 20.9268 8.95745C21.0101 8.66211 20.6073 9.48238 20.4716 9.75762C19.7601 11.201 19.2067 12.7105 18.7207 14.2431C18.5259 14.8572 18.0596 15.9347 18.1526 16.646C18.1724 16.7976 18.4786 16.5828 18.573 16.4625C19.0207 15.8922 19.4584 15.3164 19.9182 14.7553C20.1974 14.4146 20.7545 13.5738 20.238 14.635C19.2695 16.6247 17.7947 18.8137 17.3937 21.0214C17.3461 21.2835 17.7636 20.6361 17.9232 20.4228C18.8876 19.1337 19.708 17.7466 20.4635 16.3265C20.6921 15.8967 21.4626 14.7937 21.0096 14.972C20.6593 15.1099 20.3106 16.1827 20.2201 16.3975C19.7604 17.4883 19.3215 18.6017 18.9746 19.7342C18.8259 20.2197 18.5632 21.2798 19.2915 20.3419C20.0302 19.3908 21.8371 16.2643 21.0884 17.2076C20.6903 17.7091 20.3636 18.2754 20.0597 18.8365C19.7419 19.4231 19.0362 20.386 18.9682 21.0682C18.9318 21.4342 19.5145 20.5688 19.7335 20.2733C20.5123 19.2225 21.1603 18.0685 21.8393 16.9526C21.8687 16.9042 22.4299 15.9511 21.846 16.9038C21.1513 18.0372 20.5079 19.202 19.8489 20.3562C19.7238 20.5753 19.5915 20.7904 19.4729 21.0131C19.3029 21.3328 19.3568 21.2972 19.5916 21.0542C20.4267 20.19 21.2619 19.2771 21.9583 18.2963C22.3621 17.7277 22.8624 17.0498 23.0794 16.3744C23.2056 15.9816 22.8835 15.6268 22.5689 16.0185C22.4184 16.2059 21.6412 17.7588 21.8645 17.7117C22.5423 17.5687 23.0421 16.7726 23.4796 16.3025C23.7647 15.996 22.6439 17.6964 22.988 17.4581C23.226 17.2933 23.5333 16.7062 23.6688 16.5173C24.2457 15.7133 24.878 14.9359 25.3616 14.0697C25.4494 13.9126 25.5262 13.6912 25.3274 14.1744C25.0185 14.9253 24.5297 16.3121 25.9693 15.5848C26.9472 15.0908 27.7305 14.302 28.5704 13.6197C29.2734 13.0485 28.7172 14.2046 28.6516 14.4412C28.2783 15.7874 28.0585 17.1625 27.8459 18.5417C27.6825 19.6009 26.8737 22.4317 27.7038 21.7537C28.3354 21.2379 32.4111 15.6519 32.6506 15.77C32.7111 15.7998 32.5909 15.891 32.561 15.9516C32.353 16.3735 32.2976 16.4827 32.0653 16.9749C31.4843 18.2055 30.9153 19.4469 30.4356 20.7213C30.2953 21.0937 30.1652 21.4704 30.0519 21.8519C29.9569 22.1715 29.6527 22.6688 29.9356 22.8452C30.2927 23.0679 31.8959 19.9496 31.9458 19.8594C32.4512 18.9447 32.948 18.02 33.4103 17.0822C33.7158 16.4626 33.0766 17.2684 33.0355 17.3142C32.4963 17.9145 32.0046 18.5448 31.5205 19.1896C31.3306 19.4426 30.8501 20.1534 30.8276 19.8379C30.7859 19.2532 31.5938 16.8308 31.6011 16.8068C31.9034 15.8129 32.8867 13.0425 32.1096 13.732C30.8533 14.8468 29.7952 16.4456 28.8169 17.8048C28.696 17.9728 28.5819 18.1458 28.4681 18.3187C28.4095 18.4076 28.6054 18.1559 28.6687 18.0703C29.6611 16.7284 30.6683 15.4078 31.5364 13.9791C31.9174 13.352 32.29 12.6968 32.6155 12.0365C32.9736 11.3101 31.6376 13.3319 31.0798 13.919C29.799 15.2668 28.4614 16.5586 27.226 17.9496C27.225 17.9508 25.6355 19.948 25.8898 19.3921C27.1467 16.6443 28.7882 14.0749 29.9922 11.299C30.0299 11.2121 30.1513 10.9717 30.0743 11.0268C29.5453 11.4058 29.2842 12.0609 28.8919 12.58C27.6515 14.2213 26.3531 15.8102 25.0671 17.415C24.9455 17.5666 24.0989 18.6239 25.1128 17.4983C26.7308 15.7022 28.287 13.8514 29.8814 12.0345C30.0788 11.8096 30.2753 11.5839 30.4802 11.3659C30.638 11.198 30.8736 10.7175 31.0001 10.9102C31.1935 11.2047 29.3656 13.9641 29.2148 14.2499C28.8645 14.9141 28.4208 15.6301 28.1643 16.3456C27.9681 16.8931 29.0563 15.591 29.4323 15.1473C29.8741 14.6259 30.2877 14.0259 30.7781 13.5445C31.093 13.2354 30.5434 14.3971 30.3812 14.8076C30.0372 15.6782 29.678 16.5668 29.4629 17.4807C29.1781 18.6906 30.2934 17.2513 30.4567 17.0676C31.017 16.4371 31.5655 15.7919 32.0827 15.1254C32.1467 15.0429 32.32 14.7838 32.2484 14.8597C32.0621 15.057 31.6624 15.5718 31.5428 15.7275C31.2626 16.0919 29.741 18.5018 30.5737 16.8127C30.9639 16.021 31.3542 15.2293 31.7444 14.4376C31.9522 14.0162 32.6763 12.8247 32.3537 13.1664C32.1637 13.3678 30.7877 15.1025 31.562 14.2088C32.0417 13.6552 32.5318 13.1047 32.963 12.5117C33.113 12.3054 33.1073 12.307 33.1873 12.1447C33.2187 12.0811 33.1089 12.2628 33.0664 12.3195C32.3885 13.2264 30.1918 15.8095 30.8204 14.8678C31.1418 14.3863 31.5283 13.9027 31.7593 13.3683C31.9029 13.036 30.1502 14.677 30.1333 14.694C29.4705 15.3643 28.858 16.0782 28.205 16.7564C28.1925 16.7693 29.0753 15.2183 29.2465 14.9254C29.6053 14.3117 29.9277 13.6428 30.3785 13.087C30.421 13.0346 30.579 12.9064 30.531 12.9538C30.2995 13.1819 30.0421 13.382 29.8032 13.6023C28.8446 14.4861 28.1952 15.66 27.2284 16.5181C26.4401 17.2178 28.1975 14.6458 28.6683 13.7027C28.8319 13.3752 29.499 12.7054 29.1329 12.7075C28.6722 12.7101 27.1267 14.6989 26.9094 14.9282C26.188 15.6895 25.4928 16.4581 24.8644 17.2977C24.2159 18.1644 24.8625 17.1955 25.085 16.8855C26.2002 15.3315 29.4864 10.6324 28.2972 12.1305C26.9859 13.7826 25.4831 15.26 24.1586 16.8977C23.2656 18.0018 25.3864 14.3366 26.0142 13.0629C26.1305 12.827 26.4982 12.1502 26.3061 12.3299C25.5884 13.0011 24.9929 13.854 24.3546 14.5978C24.0948 14.9005 22.7462 16.9112 23.51 15.536C23.9612 14.7239 24.3602 13.882 24.7707 13.0491C25.0267 12.5298 25.2827 12.0106 25.5386 11.4913C25.642 11.2817 26.0548 10.7975 25.8276 10.8523C25.5568 10.9177 24.5949 12.3091 24.5163 12.4027C23.5929 13.5027 22.6675 14.6038 21.7067 15.6716C21.2697 16.1573 21.6949 15.3881 21.7463 15.2918C22.3708 14.1216 23.1451 13.0295 24.0512 12.0605C24.2116 11.8889 24.6642 11.3628 24.5604 11.5735C24.1176 12.4718 23.3595 13.3403 22.8127 14.1677C22.1889 15.1116 21.455 16.0765 20.952 17.0969C20.7792 17.4474 22.1719 16.2758 22.2045 16.247C22.9721 15.5681 23.6924 14.8427 24.3935 14.0961C24.4327 14.0544 25.3316 12.922 24.8931 13.7519C24.3365 14.8056 21.867 17.3557 22.8548 16.6891C24.1122 15.8406 25.2346 14.8251 26.4019 13.8618C26.4916 13.7878 26.7777 13.6139 26.718 13.7137C26.2094 14.5632 25.3794 15.3253 24.683 16.01C24.2328 16.4527 23.7036 17.0208 23.1617 17.37C22.6648 17.6902 23.7178 16.3218 24.0691 15.8463C25.0824 14.4751 28.4172 10.5926 27.3557 11.9269C26.4171 13.1065 24.9621 14.1687 23.5258 14.6234C23.2167 14.7213 22.3537 14.8421 22.5538 14.5871C23.4109 13.4952 24.5339 12.5017 25.4583 11.4604C25.5886 11.3137 27.2626 9.74713 27.2852 9.32205C27.3036 8.97607 26.7846 9.8014 26.544 10.0507C25.9073 10.7104 25.2813 11.3784 24.5976 11.9912C23.7579 12.7439 22.8705 13.3922 21.8709 13.9118C20.7835 14.477 22.2807 13.0265 22.3495 12.9408C23.179 11.908 25.7982 8.91954 24.8957 9.88934C23.6037 11.2777 22.2219 13.1017 20.3088 13.6107C19.8349 13.7367 20.0068 13.5108 20.2058 13.256C21.2056 11.9753 22.3463 10.8087 23.4312 9.60157C23.7376 9.26066 24.642 8.22524 24.3274 8.55859C23.4306 9.50877 22.5784 10.4954 21.6618 11.4297C20.9261 12.1795 20.1751 13.052 19.3586 13.724C18.8895 14.1101 19.9533 12.6606 20.3146 12.1722C20.8318 11.473 21.4136 10.8181 21.989 10.167C22.4714 9.62117 22.7387 9.36583 22.1354 10.1871C21.6147 10.8958 21.0845 11.6121 20.4822 12.2548C20.1903 12.5664 19.3403 13.3132 19.7673 13.3177C20.8739 13.3293 21.4259 11.1466 22.0884 10.4938C22.3623 10.2239 21.7773 11.1971 21.6207 11.5483C21.5208 11.7723 20.7521 13.1546 20.879 13.4403C20.9215 13.5359 20.9982 13.268 21.0517 13.1781C21.8535 11.8298 21.4586 12.3807 22.532 10.7212C22.7301 10.415 24.9257 6.62823 25.5715 6.82751C25.6683 6.85741 25.6428 7.02178 25.6428 7.12316C25.6426 7.86561 25.519 8.6038 25.5021 9.34606C25.4534 11.4865 25.4687 13.7606 25.8803 15.8709C26.2668 17.8523 28.0548 15.0856 28.6552 14.4516C28.9702 14.1189 28.7296 14.5265 28.6737 14.6431C28.3885 15.2376 28.0827 15.8222 27.799 16.4174C27.1899 17.6952 29.1755 13.942 29.8014 12.6723C29.8852 12.5024 29.971 12.3333 30.0528 12.1624C30.0823 12.1008 29.9692 12.2709 29.9353 12.3302C29.52 13.0582 28.9591 13.8366 28.7085 14.6429C28.4427 15.4979 30.8307 11.7821 30.4348 12.5852C29.9289 13.6116 29.0466 14.5342 28.4243 15.5013C27.905 16.3082 29.1823 13.725 29.3807 12.7862C29.4774 12.3282 29.2484 12.1583 29.1969 11.697C29.115 10.9643 28.4748 12.2043 28.3547 12.4367C27.9737 13.1743 28.8168 10.9378 28.8572 10.7655C28.9208 10.4944 29.4394 8.40156 28.7008 9.58571C28.5196 9.87628 27.7412 11.1097 28.1263 11.4732C28.212 11.5541 28.4039 11.3755 28.4606 11.447C28.5973 11.6194 28.1591 12.9264 28.1355 13.0927C27.939 14.4778 27.7698 16.1566 27.9866 17.5517C28.0143 17.7304 28.355 17.4568 28.4799 17.326C29.2009 16.5712 29.8207 15.7142 30.5703 14.9876C30.8464 14.7201 30.4756 15.7532 30.3747 16.1242C29.7524 18.4126 29.0499 20.6897 28.498 22.9961C28.3346 23.6788 27.6549 25.0808 28.3566 25.0971C28.987 25.1118 30.1888 23.3463 30.5631 22.9461C30.7235 22.7746 31.3601 21.7983 31.4629 22.5475C31.5883 23.4612 31.5872 24.3891 31.7362 25.3044C31.7571 25.4326 31.8017 26.3331 32.1422 26.2599C32.795 26.1197 33.6706 24.6019 34.0528 24.1454C34.087 24.1045 34.8732 22.9828 35.0663 22.9172C35.2436 22.857 34.8825 23.2434 34.7905 23.4064C34.5412 23.8479 34.2952 24.2814 34.0526 24.7271C33.7354 25.3096 32.6722 27.1106 33.8449 25.5711C33.9775 25.397 35.6262 23.089 35.415 22.9849C35.2812 22.9189 34.5458 23.5767 34.672 23.4001C35.0069 22.9312 35.5386 22.6478 36.0633 22.4449C36.6608 22.2137 37.636 22.2613 38.1532 21.8688C38.3591 21.7126 37.6381 21.8125 37.3797 21.8175C36.0993 21.8422 35.3949 22.1358 34.573 23.1429C34.268 23.5166 33.9929 24.0315 33.6081 24.343C33.5036 24.4276 33.6826 24.0847 33.7208 23.9558C33.8787 23.4234 34.0159 22.8943 34.0669 22.3377C34.1228 21.7288 34.0647 21.0924 33.4015 21.6797C33.2 21.8581 31.998 23.5075 32.5132 22.2838C33.0632 20.9777 33.7264 19.7282 34.1699 18.3771C34.5621 17.1824 34.1292 17.6458 33.6953 18.2126C33.0064 19.1125 32.405 20.0646 31.8655 21.0615C31.5588 21.6282 30.5608 23.208 31.0814 22.8283C31.9127 22.2218 32.5114 20.9219 33.0022 20.0589C33.8377 18.59 32.4514 21.0305 32.2958 21.4039C32.1939 21.6483 31.9964 22.5227 31.8053 22.7336C31.461 23.1135 30.9438 23.3331 30.8892 23.9578C30.8705 24.1723 31.0386 24.5521 31.0851 24.723C31.6433 26.7755 31.8086 28.8709 31.9912 30.9871C32.3624 35.2871 32.6435 39.5891 32.7434 43.9045C32.8888 50.1845 32.7057 44.4231 32.7767 48.5575C32.782 48.8665 32.6068 49.3165 32.869 49.48C33.0355 49.5839 36.2164 46.1078 34.7409 46.0701C32.6194 46.0158 35.9839 38.5253 35.649 37.2705C35.6468 37.2622 29.476 40.1023 29.0833 40.2856C28.9635 40.3415 26.7966 41.5956 26.4009 41.4118C26.227 41.331 28.2833 39.637 28.3687 39.5686C28.5475 39.4256 29.1988 38.7289 29.492 38.6463C29.5186 38.6388 29.7999 39.2227 29.8229 39.2609C30.0079 39.5686 30.1566 39.8938 30.3298 40.2054C30.8519 41.1449 31.3064 42.0049 32.2243 42.6327" stroke="#4A3AFF" stroke-width="0.516273" stroke-linecap="round"/>
<path d="M31.9111 31.5378C30.709 32.3443 29.4378 33.0278 28.2111 33.7947C27.8528 34.0187 26.4799 35.0177 27.5547 34.1223C28.4567 33.3709 29.5915 32.9359 30.5253 32.2178C30.6327 32.1352 32.09 30.9315 31.5207 31.4842C30.5349 32.4414 29.576 33.4528 28.4435 34.2392C27.7276 34.7364 26.9584 35.1458 26.2222 35.6101C25.9059 35.8096 25.1761 36.6401 25.3414 36.3047C25.5194 35.9437 25.6377 35.91 26.0423 35.834C26.9112 35.671 27.6922 35.1255 28.4566 34.7059C29.2094 34.2926 29.9265 33.8934 30.6961 33.4742C31.6331 32.9638 31.4737 32.8379 30.8016 33.6477C30.4296 34.0959 30.1113 34.6164 29.7088 35.0366C29.4881 35.2671 29.2867 35.2039 29.2729 35.5511C29.2618 35.8289 29.1469 35.7566 29.426 35.5223C30.2947 34.7931 31.3551 34.2292 32.299 33.6044" stroke="#4A3AFF" stroke-width="0.516273" stroke-linecap="round"/>
<path d="M34.6731 31.9607C33.2478 32.1125 32.1843 33.6826 31.2998 34.7174C31.083 34.9711 30.5138 35.7959 30.7228 35.5356C31.049 35.1295 31.5142 34.8681 31.9504 34.5953C33.1164 33.866 34.2563 33.1313 35.3296 32.267C35.5515 32.0884 36.845 30.6682 37.2577 30.7689C37.269 30.7716 37.2405 30.7521 37.2366 30.7411C36.9673 29.9825 36.7102 29.2283 36.3949 28.4855C36.2944 28.2486 35.8908 27.1692 35.5154 26.9231C35.1841 26.706 34.1407 27.6805 33.9529 27.7853C32.3096 28.7027 30.4695 29.1814 28.6268 29.5011C27.5366 29.6903 26.8704 29.7724 27.689 28.7263C28.1374 28.1532 28.6236 27.6044 29.1146 27.0673C29.3 26.8645 29.5005 26.6923 29.247 27.0805C28.6014 28.0688 27.7278 28.852 27.2291 29.9409C27.1098 30.2015 27.7551 29.71 28.0037 29.5673C28.8674 29.0719 29.7459 28.6365 30.5762 28.083C30.766 27.9565 31.2321 27.5948 31.2086 27.8217C31.1084 28.7879 30.138 30.064 29.7214 30.909C29.0465 32.2781 28.3716 33.6473 27.6967 35.0164C27.6382 35.1351 27.0872 35.8909 27.5894 35.7623C28.2935 35.5821 28.97 35.0048 29.5648 34.6262C30.6868 33.9119 31.8416 33.0181 33.0811 32.5131C33.8962 32.1809 33.3506 33.0612 33.1869 33.3727C32.3981 34.8746 31.4493 36.2349 30.3369 37.5161C29.4092 38.5846 28.4069 39.5867 27.4848 40.6599C27.0576 41.1571 25.9344 42.7743 26.334 42.2546C27.0361 41.3413 27.7152 40.4303 28.5377 39.6161C29.5672 38.5969 30.7818 37.7803 31.7534 36.7036C31.8974 36.5439 32.4423 36.0861 31.8949 36.4868C30.6654 37.3869 29.3071 38.141 27.9973 38.9156C27.8073 39.028 25.7005 40.1241 25.7397 40.0254C26.1337 39.0339 27.44 38.221 28.1916 37.5352C28.6297 37.1355 29.7322 35.7757 29.4873 36.3158C29.1372 37.0878 28.3971 37.7633 27.9006 38.4424C27.5252 38.9559 27.2116 39.4879 26.9311 40.057C26.7095 40.5064 27.3741 39.1582 27.5956 38.7089C27.69 38.5175 28.6254 36.796 27.7319 37.5517C27.261 37.9501 26.8451 38.4842 26.4686 38.9695C26.2759 39.218 26.0506 39.6238 26.3195 39.0783C26.6066 38.496 26.8991 37.9164 27.1524 37.3182C27.2209 37.1565 27.7571 35.8777 27.5562 36.0412C26.2764 37.0825 25.3338 38.3879 24.3237 39.6747C23.6568 40.5243 25.3212 37.7541 25.7142 36.7482C25.766 36.6157 26.1258 35.6517 25.7005 36.1596C25.0229 36.9686 24.2208 37.6585 23.5576 38.4809C23.246 38.8674 22.0205 40.8242 22.7889 39.2654C23.2894 38.25 25.2289 35.5335 24.3531 36.2508C23.505 36.9453 23.4343 38.3384 22.4951 39.0511C22.3338 39.1735 22.4035 39.399 22.6323 39.3011C23.431 38.9595 23.9323 37.8624 24.3024 37.1462C24.4875 36.788 25.3912 34.6204 24.6691 36.0853C24.3128 36.8081 23.849 37.546 23.6334 38.3272C23.6175 38.3848 23.4885 39.2226 23.755 38.8908C23.9309 38.6718 24.8119 37.3187 24.8152 37.9026C24.8223 39.1612 25.0906 40.4063 25.2891 41.6441C25.4528 42.6649 25.3929 44.0191 25.7469 44.9955C25.8049 45.1554 28.8079 42.6554 29.0795 42.4272C29.5937 41.9952 29.7865 41.8552 29.4529 42.5505C29.1306 43.222 28.794 43.8871 28.4646 44.5553C28.4418 44.6015 28.0593 45.2028 28.3832 44.9493C29.095 44.3923 29.7675 43.7929 30.3826 43.1303C30.4243 43.0854 31.6305 41.7232 31.3954 42.3793C31.1635 43.0261 30.79 43.6425 30.4865 44.2582C30.3848 44.4645 30.2287 44.7187 30.48 44.3419C31.084 43.4363 31.7543 42.5698 32.482 41.7601C33.7786 40.3176 32.3726 42.4139 32.0881 42.9291C31.5918 43.828 31.7087 43.8869 32.7476 43.7578C33.8098 43.6259 34.8701 43.4511 35.9356 43.3497C36.4342 43.3023 36.5709 43.3293 36.3422 43.7932C35.9446 44.5997 34.1095 46.5674 34.8258 46.0239C36.5343 44.7274 38.5913 43.9086 40.3622 42.7013C40.4392 42.6488 40.6824 42.4006 40.382 42.5026C39.6452 42.7529 38.9996 43.2606 38.2703 43.5455C37.5144 43.8408 36.7055 43.9937 35.9691 44.3387C35.51 44.5537 36.8283 43.7992 37.2742 43.5581C39.3707 42.4247 41.4543 41.2848 43.5803 40.2067C43.7894 40.1007 43.7419 40.1231 43.5769 40.2137C43.0158 40.5217 42.4811 40.7397 41.8354 40.8226C39.8269 41.0804 37.8392 41.1788 35.8312 41.5183C35.1639 41.6311 33.2841 42.1851 33.816 41.7665C34.8589 40.9459 36.3167 40.361 37.4966 39.7605C39.534 38.7235 41.5169 37.3891 43.7315 36.7647C45.0628 36.3894 46.7962 35.9603 48.1955 35.9523C48.5009 35.9506 47.8104 36.4383 47.5584 36.6107C45.9574 37.7062 44.0631 38.5088 42.2969 39.2875C39.9452 40.3242 37.5397 40.9797 35.0407 41.5367C34.292 41.7036 33.8505 41.8317 34.7708 41.2387C37.243 39.6458 40.0511 38.5931 42.6086 37.1403C44.0166 36.3405 41.3631 37.9387 41.1163 38.0891C39.9187 38.8191 36.307 40.9746 37.4782 40.2029C41.2031 37.7487 45.8974 36.2875 50.1266 34.9941C50.567 34.8594 51.8392 34.4562 51.4871 34.753C50.1619 35.8701 48.3127 36.6386 46.7969 37.4509C44.2344 38.8242 41.5043 39.7084 38.695 40.4294C37.9594 40.6181 37.3921 40.7571 36.6635 40.8693C36.4282 40.9055 35.8695 40.9941 35.9559 40.7722C36.2028 40.1381 37.0399 39.5718 37.5562 39.2168C39.4795 37.8944 41.6277 36.7974 43.7013 35.7339C43.8206 35.6728 46.7348 34.3415 46.2526 34.8209C44.9212 36.1447 43.0223 36.9918 41.4008 37.882C40.2143 38.5334 39.0281 39.1711 37.9121 39.9392C37.0409 40.5388 37.6549 39.9681 38.0605 39.7085C40.1937 38.3432 42.4686 37.0878 44.73 35.9545C46.4123 35.1115 47.5564 34.6141 49.3054 33.8946C50.1734 33.5376 51.8336 32.6781 52.8993 32.5752C53.5747 32.5099 51.7612 33.3162 51.1709 33.6507C48.3265 35.2624 45.5211 36.6747 42.2895 37.365C40.5142 37.7441 39.6687 37.8076 37.9281 37.8459C36.8586 37.8694 35.8051 37.7544 34.7489 37.9718C33.7827 38.1708 34.8409 37.775 35.2237 37.5547C36.8624 36.6117 38.4763 35.6294 40.1079 34.6746C42.7342 33.1375 45.4917 31.8711 48.1713 30.4355C48.6246 30.1927 49.0539 29.9017 49.5255 29.6965C49.6282 29.6517 49.5206 29.9367 49.4507 30.0243C49.2384 30.2903 49.0267 30.5349 48.8352 30.8149" stroke="#4A3AFF" stroke-width="0.516273" stroke-linecap="round"/>
<path d="M51.1597 27.917C47.5242 29.7703 43.6948 30.3114 39.6902 30.9632C37.9354 31.2488 36.1861 31.5715 34.429 31.8428C34.2004 31.8781 33.7965 31.9305 33.5451 31.9801C33.4766 31.9937 33.3125 32.0997 33.3434 32.037C33.455 31.8106 34.3187 31.576 34.4898 31.5081C35.5842 31.0738 36.644 30.5742 37.728 30.1175C39.1044 29.5377 40.5157 29.2595 41.9922 29.0764C42.5023 29.0131 43.9298 28.8326 43.5321 29.1582C40.8505 31.3543 37.1585 32.6966 33.864 33.5526C32.5979 33.8816 31.265 34.189 29.9606 34.3374C29.8664 34.3482 29.6272 34.3277 29.6884 34.2554C30.0582 33.8191 30.9413 33.4599 31.4066 33.2182C35.4388 31.1241 39.7076 30.1537 44.1535 29.4125C44.1636 29.4108 45.7693 29.159 45.7198 29.2295C45.0274 30.2153 43.3083 30.9392 42.3265 31.5334C40.3545 32.727 38.1253 33.5087 36.222 34.7931C35.8691 35.0313 36.8366 34.1977 37.189 33.9587C38.7626 32.8916 40.5144 32.1256 42.3019 31.4953C44.2502 30.8082 46.3751 30.058 48.4434 29.834C49.426 29.7276 48.4838 30.4026 48.2248 30.5945C47.2928 31.2852 46.2787 31.879 45.2748 32.4572C45.2043 32.4978 42.9437 33.7 43.9495 32.7503C44.7822 31.964 45.8588 31.4251 46.8154 30.8115C47.5336 30.3508 48.2374 29.7938 49.0369 29.4754C49.3588 29.3473 49.3107 29.4454 49.0517 29.6216C47.9995 30.3377 46.8414 31.0204 45.6489 31.4694C44.9601 31.7287 44.1229 31.9563 43.3774 31.9733C43.0703 31.9804 43.6709 31.1498 43.6964 31.1147C45.0912 29.2024 47.4315 28.1722 49.3427 26.8824C49.7717 26.5929 49.1639 26.8558 49.0989 26.8838C47.9215 27.3905 46.6802 27.5923 45.4119 27.7405C43.5575 27.9572 41.7012 28.1057 39.8496 28.3501C39.5443 28.3904 38.3037 28.6342 38.9206 27.9096C40.0408 26.5938 42.3339 25.6537 43.927 25.081C44.3081 24.944 44.832 24.6882 45.2411 24.6347C45.7549 24.5675 44.4715 25.3344 44.0415 25.6237C42.8556 26.4216 41.5497 26.9625 40.2243 27.4842C38.8898 28.0095 37.5036 28.6582 36.1127 29.026C34.4672 29.4612 38.9028 26.9851 40.5145 26.4377C40.798 26.3414 44.512 25.4278 44.182 25.8319C42.789 27.5377 40.5303 28.7164 38.5222 29.5105C36.7713 30.2028 41.6284 27.3003 43.3996 26.6617C44.1887 26.3772 45.1552 26.022 46.0009 25.9644C46.2887 25.9448 44.1473 27.3368 43.9682 27.4282C41.7072 28.5818 39.3091 29.3813 36.8567 30.0179C34.9627 30.5097 32.9268 31.1199 30.9782 31.3747C30.3023 31.4631 31.9422 30.3908 32.5241 30.0355C35.1852 28.4104 38.1072 27.0575 41.0591 26.055C41.2255 25.9985 44.1644 24.9221 44.3128 25.549C44.4513 26.1342 42.8421 27.1605 42.5329 27.3806C41.4227 28.1713 40.2394 28.8699 39.0588 29.5492C38.4827 29.8807 36.6829 30.5762 37.3475 30.5724C37.7173 30.5703 38.7975 29.9241 39.0708 29.8243C41.291 29.0135 43.5631 28.5052 45.8947 28.1348C47.9108 27.8146 49.9766 27.4811 52.0205 27.4036C53.347 27.3533 52.5604 28.2447 52.0081 28.8909C50.6077 30.5292 48.6105 31.5347 46.8647 32.7547C45.5754 33.6557 49.5921 31.1825 51.0036 30.4883C52.1798 29.9098 53.3956 29.4063 54.5641 28.8138C54.9026 28.6421 53.2027 28.8277 53.0944 28.836C51.721 28.9407 50.4575 29.3688 49.1252 29.6839C48.3367 29.8704 48.0271 29.915 47.2708 30.0462C46.9976 30.0935 46.327 30.4284 46.4496 30.1797C46.6987 29.6745 48.1027 29.1229 48.5043 28.9003C49.9818 28.0811 51.4629 27.2566 52.9627 26.4788C53.2923 26.3078 54.0247 26.002 53.3741 26.5601C52.0402 27.7043 50.4074 28.7709 48.8564 29.5774C45.2433 31.4564 41.4272 31.6662 37.4625 31.8187C37.2077 31.8285 37.8194 31.4477 38.0343 31.3104C39.964 30.0776 42.1387 29.2147 44.2308 28.3045C45.1785 27.8921 46.2822 27.2104 47.3022 26.9705C47.3617 26.9566 46.3416 28.1609 46.3268 28.1742C45.1762 29.2104 43.806 29.9331 42.4751 30.7037C41.6001 31.2102 40.2593 31.7419 39.5597 32.5139C39.1926 32.9188 40.4868 31.9338 40.9655 31.67C43.373 30.343 45.9202 29.267 48.5081 28.3465C49.6813 27.9292 51.7846 26.9363 53.1405 27.1221C53.2594 27.1384 52.9785 27.3055 52.8736 27.364C51.7889 27.9694 50.7089 28.5822 49.6274 29.1934C45.8222 31.3443 42.1454 33.2378 37.9549 34.5186C37.3323 34.709 38.8722 33.565 39.4454 33.2564C42.141 31.805 45.4001 31.3241 48.3683 30.7261C48.6558 30.6682 49.4241 30.4886 49.8299 30.5088C50.1941 30.527 49.8426 30.71 49.7166 30.7916C47.9636 31.9265 46.0064 32.8899 44.1084 33.749C42.1645 34.6288 40.2717 34.9959 38.1752 35.2871C38.1363 35.2925 35.0986 36.0356 36.4199 35.3075C37.9698 34.4534 39.7012 33.9037 41.3755 33.3569C41.4323 33.3384 44.9018 32.4282 44.8952 32.4524C44.7438 33.0062 42.3184 33.9415 41.9165 34.1619C39.5968 35.4341 37.2376 36.5888 34.7889 37.5946C33.656 38.0599 32.0225 38.9546 30.7286 38.9619C30.2172 38.9648 31.5284 38.3079 31.9914 38.091C34.058 37.123 36.2709 36.5513 38.4931 36.069C40.3219 35.672 42.3373 35.1593 44.2281 35.2146C44.4858 35.2221 43.9027 35.6297 43.6809 35.761C42.1465 36.6693 40.544 37.5084 38.9304 38.2642C36.7754 39.2737 34.5404 40.1063 32.1826 40.4862C30.4462 40.766 31.1865 39.9515 31.9971 39.101C34.2677 36.7188 37.4141 35.2353 40.2628 33.6767C41.2756 33.1225 40.4543 33.6977 40.0554 33.9565C37.706 35.4804 35.2375 36.8938 32.6666 38.0071C30.1845 39.082 27.5633 40.0064 24.9 40.5169C23.8656 40.7152 24.7873 40.0085 25.1009 39.7042C28.8238 36.0913 33.4037 33.7695 38.0639 31.6202C38.3314 31.4969 38.5838 31.303 38.877 31.2743C38.9611 31.2661 38.8558 31.4484 38.8087 31.5185C38.1402 32.5126 37.2308 33.3881 36.3369 34.1725C34.8381 35.4878 33.3031 36.7157 31.8871 38.1264C31.2185 38.7926 29.246 40.7993 29.7872 40.026C30.4014 39.1484 31.3866 38.3866 32.1597 37.6617C33.2675 36.6228 34.4088 35.6134 35.5978 34.6678C35.9405 34.3953 36.8391 33.5672 36.7224 33.9892C36.4257 35.0626 35.3692 36.1675 34.8141 37.1207C34.3142 37.9791 33.8731 38.8714 33.345 39.7134C33.0883 40.1227 33.325 39.7132 33.407 39.5876C34.4859 37.9348 35.9133 36.5508 37.1567 35.0282C37.42 34.7058 36.5905 35.6389 36.2946 35.9317C35.189 37.025 33.9977 37.888 32.6635 38.6828C31.7831 39.2072 30.9663 39.7375 30.1443 40.341C29.8192 40.5797 30.592 39.6668 30.8597 39.3652C32.3818 37.6504 33.8254 35.9111 35.2079 34.0849C36.7346 32.0682 31.944 37.9523 30.2248 39.8076C29.5628 40.5221 28.8136 41.3548 27.9726 41.8753C27.6724 42.0611 28.2325 41.2103 28.4409 40.9253C30.2353 38.4714 32.5306 36.4048 34.3854 33.992C34.4883 33.8582 33.0925 36.0714 33.0876 36.0786C32.2869 37.2645 31.8497 37.857 30.9689 38.9675C30.5941 39.4401 30.3189 40.0513 29.789 40.3395C29.3739 40.5653 30.2118 39.4938 30.4437 39.0819C31.2412 37.665 31.7153 36.8277 32.5439 35.3851C32.9961 34.5978 33.4738 33.8248 33.9063 33.0265C34.1321 32.6095 33.3458 33.7914 33.0699 34.1771C31.5234 36.3388 29.8939 38.5735 27.8032 40.2462C27.5787 40.4258 27.39 40.6576 27.5661 40.1988C28.1407 38.7016 28.865 37.2588 29.5335 35.8027C30.0677 34.639 30.602 33.4765 31.1682 32.3279C31.749 31.1497 30.0066 34.6843 29.4259 35.8625C27.9003 38.9572 23.2374 48.1909 24.9473 45.1942C26.1637 43.0624 27.0847 40.7682 28.2607 38.6136C28.453 38.2613 29.0402 37.2143 28.8888 37.5861C28.5652 38.3808 28.1085 39.1273 27.7595 39.9121C27.6712 40.1108 26.5372 43.154 27.2485 42.5516C28.0847 41.8435 28.7557 40.9099 29.4706 40.087C30.4944 38.9087 31.6245 37.7961 32.5119 36.5068C32.9183 35.9164 32.3729 36.8591 32.3608 36.8838C31.801 38.0194 31.2208 39.1484 30.7083 40.3064C30.1395 41.5916 29.6692 42.9226 29.2749 44.2711C29.0473 45.0493 29.0282 45.2319 29.6109 44.5757C30.6199 43.4397 31.5672 42.2354 32.6707 41.187C32.9692 40.9034 33.8958 40.1109 33.4017 41.1132C32.2371 43.4757 30.3486 45.3692 28.8508 47.5092C28.6254 47.8313 29.2686 46.8409 29.514 46.5337C30.3981 45.4271 31.3686 44.3837 32.3696 43.3829C33.1343 42.6184 33.9631 41.6792 34.9134 41.129C35.3218 40.8925 34.6368 42.3846 34.6006 42.4856C34.2583 43.4425 33.9628 44.4309 33.886 45.4502C33.8083 46.4803 34.1819 46.6933 35.2222 46.4736C37.7889 45.9314 40.1517 44.6089 42.4846 43.472C44.9829 42.2545 47.5824 41.2919 50.0897 40.1098C51.8768 39.2673 46.5291 41.8308 44.6946 42.5644C44.0263 42.8317 42.8491 43.5353 42.063 43.4465C41.555 43.3892 43.0713 41.7872 43.1502 41.6989C43.9015 40.8593 44.6131 39.9761 45.3788 39.1508C45.7044 38.7999 46.8786 37.9619 46.4882 38.2389C44.7371 39.4818 42.693 40.7114 40.6937 41.5038C38.5856 42.3394 44.5318 39.0823 46.5217 37.9949C48.4209 36.9572 50.3892 36.07 52.3147 35.0853C54.2862 34.0771 51.9668 35.5079 51.5593 35.7722C47.1236 38.6495 42.2971 41.2316 37.0372 42.2281C36.5852 42.3137 37.6031 41.4878 37.9719 41.2127C40.3079 39.4705 42.8165 37.848 45.3353 36.3856C46.9316 35.4588 48.6214 34.7008 50.1894 33.725C50.3201 33.6437 51.038 33.1096 50.583 33.7193C48.3841 36.6659 44.8032 38.6033 41.6306 40.2726C40.5613 40.8352 39.4266 41.3153 38.3975 41.9522C37.7077 42.3791 39.7463 41.0502 40.4344 40.6207C43.1145 38.9476 45.8348 37.337 48.585 35.7821C50.8451 34.5042 53.1178 33.0374 55.4593 31.912C58.267 30.5625 50.249 35.3584 47.4549 36.7358C45.3098 37.7933 43.1416 38.8625 40.9171 39.7472C40.8588 39.7704 40.678 39.7778 40.729 39.7413C41.9017 38.9018 43.1629 38.1502 44.3726 37.3697C46.4968 35.9993 48.6275 34.6454 50.8038 33.3593C51.3686 33.0256 53.0259 32.126 52.3714 32.1698C51.5618 32.2239 50.086 33.6584 49.4528 34.0392C46.7319 35.6756 43.8895 37.1875 40.9795 38.4582C40.3608 38.7283 39.0795 39.243 38.3731 39.4829C38.2477 39.5255 37.8679 39.5546 37.976 39.4782C39.8692 38.1406 42.0256 37.0414 44.051 35.9261C46.2151 34.7345 48.3856 33.729 50.7425 32.9905C51.1316 32.8686 51.5057 32.5829 51.9108 32.6286C51.9938 32.638 51.7833 32.7376 51.7131 32.783C50.9269 33.2919 49.5756 34.0667 48.9048 34.4463C45.3247 36.4722 41.6751 38.349 37.867 39.9107C37.1025 40.2242 36.3556 40.6393 35.5382 40.7598C35.289 40.7965 35.8295 40.3388 36.0295 40.1858C38.0149 38.6676 40.3023 37.5566 42.4791 36.3495C45.2338 34.822 47.8923 33.2461 50.4269 31.3762C50.5523 31.2837 50.9425 31.0259 50.8155 31.1163C50.492 31.3467 50.0834 31.5807 49.7394 31.7493C46.4423 33.365 42.9112 34.6095 39.3962 35.6459C37.5343 36.195 35.6769 36.6381 33.7755 37.0082C33.3839 37.0844 32.2453 37.3425 32.5851 37.1333C33.2369 36.732 33.9714 36.4834 34.6553 36.1394C37.1352 34.8921 39.595 33.6131 42.1087 32.4333C45.0897 31.0342 48.2589 29.3372 51.4944 28.5943C53.5837 28.1145 50.3763 30.6314 50.3636 30.6417C47.521 32.9422 44.2985 34.6734 40.977 36.1734C39.7924 36.7083 38.7685 37.128 37.5752 37.5788C36.638 37.9329 36.5602 37.9005 37.3723 37.4267C40.8936 35.3722 44.6 33.287 48.4163 31.8264C49.987 31.2253 48.8126 32.166 48.2603 32.5657C45.9172 34.2613 43.2488 35.5286 40.6918 36.8576C23.9034 45.5836 48.4731 32.7979 37.8024 38.3507C37.5823 38.4653 37.2662 38.8929 37.1356 38.6819C37.0369 38.5224 39.8796 36.776 39.9319 36.7435C41.7247 35.6277 43.4972 34.5167 45.2344 33.3142C46.3315 32.5547 49.7844 30.5263 48.6217 31.1809C46.0186 32.6464 43.1804 33.7887 40.2991 34.5542C38.8485 34.9395 37.3115 35.3483 35.808 35.4921C35.5655 35.5152 35.5568 35.5001 35.7441 35.2869C36.4073 34.5323 37.3087 33.9029 38.1224 33.3335C40.1796 31.8937 42.4063 30.6974 44.6208 29.5213C45.2216 29.2022 46.4554 28.3343 47.2627 28.6008C47.5584 28.6984 46.2995 29.5772 46.293 29.5815C44.7528 30.5959 42.8903 31.3157 41.123 31.8084C40.1067 32.0918 38.9497 32.384 37.8874 32.4362C37.3583 32.4622 38.7226 31.7757 39.1883 31.5233C43.8457 29.0001 49.0986 26.349 54.4707 25.8503C55.1797 25.7845 54.4595 26.312 54.2791 26.4505C52.8087 27.5789 51.0442 28.2111 49.2764 28.7078C48.2736 28.9896 46.7155 29.335 45.6586 29.4945C45.557 29.5099 44.2696 29.6913 43.9453 29.553C43.4062 29.323 47.4228 26.6723 47.5231 26.6106C48.8164 25.8153 50.1681 24.9146 51.5888 24.3515C52.4494 24.0105 51.3137 24.8582 51.2992 24.8686C49.6902 26.0213 47.9137 26.8829 46.101 27.6635C45.9838 27.714 41.4925 29.7568 43.6671 28.3912C45.9498 26.9578 48.3527 25.6903 50.7994 24.5615C51.2098 24.3722 52.3491 23.7227 52.0644 24.0737C51.7164 24.5028 51.0629 24.5444 50.5426 24.7301C47.6236 25.7718 44.6221 26.5374 41.5483 26.9473C41.0687 27.0113 38.9673 27.2308 38.3106 27.2095C36.9727 27.1661 39.0067 26.2372 39.0191 26.2302C40.4954 25.409 42.0186 24.6815 43.5727 24.0207C44.0542 23.816 44.7228 23.5375 45.2408 23.3495C45.3805 23.2988 45.6335 23.3566 45.6649 23.2113C45.6951 23.0717 45.3747 23.1811 45.2365 23.2172C44.6077 23.3813 44.1768 23.6149 43.5932 23.944C43.492 24.001 40.6645 25.5437 42.217 25.0976C44.6489 24.3988 47.0844 23.7993 49.6131 23.5686C49.9249 23.5402 52.8473 23.3688 51.0139 24.3025C49.4467 25.1007 47.5666 25.429 45.8389 25.6588C43.7225 25.9403 46.2848 24.9965 46.74 24.87C48.174 24.4716 49.7841 24.0387 51.2838 24.0015C52.3356 23.9754 51.1713 24.7579 50.9196 24.8812C49.5894 25.5332 48.1722 26.0083 46.8337 26.6528C44.7569 27.6528 48.0331 25.9361 48.2884 25.833C50.1174 25.0944 52.0635 24.3471 54.0359 24.1078C55.2255 23.9635 54.0424 24.7241 53.7202 24.942C51.8111 26.2337 49.2806 26.1844 47.0723 26.3449C46.1661 26.4108 43.6851 26.6009 42.5734 26.5236C40.876 26.4056 42.8889 25.4863 43.2527 25.3216C45.352 24.3714 47.7428 23.7898 50.0418 23.6324C51.3332 23.5439 50.6729 24.0945 50.0822 24.6073C49.1042 25.4563 48.0189 26.3468 46.8632 26.9452C46.7378 27.0101 47.0359 26.7145 47.154 26.637C48.361 25.8453 49.7214 25.3146 51.0549 24.783C52.085 24.3723 54.9373 23.0263 54.2647 23.908C53.584 24.8005 52.1914 25.349 51.1251 25.5035C50.6205 25.5767 48.3405 25.5437 48.9908 24.3906C49.459 23.5604 51.8652 21.9705 50.9889 22.3453C50.2564 22.6586 49.6157 23.2299 48.8781 23.5623C48.5617 23.7049 47.5761 23.987 47.8624 23.791C48.5522 23.3186 49.364 22.9005 50.1617 22.6495C51.0651 22.3651 49.8174 23.6795 49.6494 23.8296C49.2949 24.1462 48.8696 24.2526 49.6674 23.934C50.8089 23.4781 52.2051 23.0409 53.4462 23.2962C54.8459 23.584 53.2776 24.3804 52.8474 24.5638C51.9717 24.9373 49.5543 26.4728 50.3545 25.9572C51.1561 25.4407 51.7884 24.9674 52.7295 24.662C53.7632 24.3266 55.3571 23.7458 56.4797 23.8885C56.9652 23.9502 55.938 24.8143 55.4687 24.9531C54.924 25.1141 54.1518 25.111 53.5961 25.1587C53.2503 25.1884 52.8678 25.4823 52.566 25.3108C52.2505 25.1315 53.1888 24.9374 53.5103 24.7691C54.2919 24.3598 55.0901 23.9704 55.9 23.6201C56.0724 23.5456 58.0394 22.5938 56.8819 23.5658C55.9486 24.3495 54.9522 25.018 53.9615 25.7208C53.6776 25.9222 53.8453 25.8462 54.0528 25.8527C54.6883 25.8726 55.2355 25.987 55.3847 26.7263C55.6169 27.877 54.6669 28.5366 54.2543 29.4599C53.9916 30.0476 56.7243 28.4186 56.8046 28.3727C57.7422 27.8361 58.9147 27.0212 60.0213 26.8673C60.4255 26.8111 58.6955 28.2853 58.6849 28.2924C58.1342 28.6641 51.7897 32.5036 51.532 32.1641C51.3725 31.9539 51.9982 31.9172 52.2335 31.7979C52.9202 31.4496 53.0173 31.4022 53.7059 31.0303C54.1088 30.8127 54.7406 30.4567 55.1504 30.2489C55.5647 30.0388 56.5823 29.3169 56.4572 29.7644C56.2786 30.4033 54.1903 31.3472 53.7544 31.6012C52.0792 32.5774 50.3584 33.4842 48.6186 34.3399C47.9031 34.6919 48.2769 34.2684 48.613 33.9638C50.039 32.6714 51.7397 31.6192 53.4113 30.6767C53.585 30.5787 54.3593 30.0163 54.6128 30.036C55.0924 30.0732 54.0249 30.8009 53.6856 31.1418C52.8552 31.9763 51.9599 32.7638 51.045 33.5043C49.9719 34.3727 51.7604 33.1291 51.9061 33.0431C53.6666 32.005 55.3631 30.8536 57.1438 29.851C58.5591 29.0543 56.7661 30.8148 56.6727 30.9125C55.9048 31.7154 55.078 32.4866 54.0862 33.0064C53.0545 33.5472 54.6278 31.9053 54.7133 31.8048C55.3041 31.1109 55.8698 30.2931 56.6454 29.7877C56.7449 29.7228 57.3878 29.3802 57.0077 29.7926C56.4873 30.3571 55.9541 30.9468 55.3521 31.425C54.9828 31.7183 54.5887 31.9616 54.1862 32.2048C54.05 32.2871 53.9113 32.3651 53.7731 32.444C53.5926 32.547 53.4725 32.621 53.7243 32.4373C55.8548 30.883 58.1656 29.5579 60.4329 28.2164C60.5214 28.164 60.8278 27.9798 60.5511 28.1704C60.1904 28.4189 59.7661 28.6865 59.4059 28.9083C57.3336 30.184 55.1556 30.9274 52.8103 31.5613C51.6517 31.8744 50.1694 32.2262 48.9705 32.5164C48.5855 32.6096 48.1488 32.9464 47.8051 32.7494C47.5783 32.6194 48.1358 32.3422 48.3277 32.1648C49.0698 31.4786 49.8043 30.8176 50.5698 30.1529C52.0397 28.8764 53.5373 27.6808 55.1787 26.6335C55.2199 26.6072 57.1547 25.5453 56.1513 26.1752C53.6584 27.7401 51.2472 29.4325 48.7249 30.9539C48.0704 31.3487 47.9505 31.3928 48.7316 30.9051C50.9168 29.5408 53.1175 28.1999 55.3088 26.8452C56.29 26.2385 57.3568 25.3951 58.4396 24.9502C58.8898 24.7652 57.8826 25.752 57.5546 26.1115C56.4905 27.2779 55.3932 28.3498 54.0683 29.2206C53.5043 29.5913 52.0906 30.3727 53.4249 29.381C54.5422 28.5505 55.7294 27.8093 56.9368 27.1181C57.3239 26.8965 58.339 26.1664 58.1597 26.5748C57.4331 28.2303 55.9539 30.0007 54.637 31.2375C53.5561 32.2526 57.0724 29.545 58.2972 28.7091C59.9898 27.5539 58.0795 29.1619 57.5708 29.6013C57.1943 29.9266 56.3279 30.3967 57.2166 29.7914C57.5852 29.5404 57.977 29.2809 58.3971 29.123C59.1278 28.8482 57.0218 29.8626 56.3415 30.2456C55.6005 30.6628 54.8723 31.103 54.123 31.5051C54.0664 31.5355 53.905 31.6165 53.9388 31.5618C54.0323 31.4103 54.5272 30.8208 54.5336 30.8131C55.351 29.8435 56.2348 28.9334 57.0566 27.9673C57.5318 27.4085 59.094 25.8593 58.5486 26.3497C56.9788 27.7611 55.0453 29.1053 53.2273 30.1692C53.1841 30.1945 51.3592 31.2547 51.7124 30.8117C52.8986 29.324 54.3231 28.0077 55.5964 26.5963C56.5834 25.5023 57.5027 24.3626 58.0838 22.9948C58.4624 22.1035 57.4039 23.2891 57.3544 23.3472C56.5597 24.2798 55.8663 25.2967 55.0789 26.237C54.9823 26.3524 53.0717 28.3695 53.9597 27.8733C55.779 26.8567 57.533 25.7831 59.4109 24.8646C59.686 24.73 59.2482 25.4589 59.1128 25.7335C58.7185 26.5333 58.3567 27.3902 57.8201 28.1092C57.4651 28.585 58.527 27.1541 58.9128 26.7029C59.0756 26.5125 59.8304 25.8042 59.253 26.5059C58.8475 26.9987 58.4097 27.4593 58.0143 27.9618C57.4361 28.6967 58.4395 27.5206 58.5025 27.4471C58.8443 27.0489 59.1758 26.644 59.4882 26.2225C59.7223 25.9067 59.0269 26.8592 58.7866 27.1703C58.3781 27.6992 57.9401 28.2119 57.6116 28.7965C57.1774 29.569 57.9558 28.401 58.0441 28.2891C58.4288 27.8009 60.0128 25.996 59.0714 27.6494C58.7555 28.2041 58.3793 28.7488 58.1196 29.3335C57.8729 29.8889 59.0312 28.5255 59.436 28.0722C59.9231 27.5267 60.3427 26.8305 60.8996 26.3538C61.1124 26.1717 60.6295 26.853 60.4333 27.0531C59.7262 27.7742 58.9385 28.4218 58.1529 29.0547C57.8356 29.3103 57.5161 29.5973 57.8323 29.0356C58.1865 28.4065 57.8522 28.6119 57.3581 28.9408C56.6886 29.3864 55.9252 29.8774 55.4796 30.5675C55.1289 31.1104 56.2774 30.5873 56.6118 30.6133C56.9238 30.6375 56.1861 31.0972 55.9012 31.2268C55.2665 31.5157 54.6741 31.8858 54.0644 32.2229C53.4404 32.5678 54.8056 31.4548 54.9542 31.281C55.2929 30.8847 55.5513 30.163 56.0032 30.7735C56.215 31.0598 56.224 31.1949 56.5638 31.3624C57.0944 31.624 56.9474 31.7014 56.5855 32.1285C56.3966 32.3515 56.1427 32.1712 55.9431 32.463C55.6803 32.8472 55.0286 33.2398 54.6039 33.4006C54.1557 33.5703 53.8406 33.8924 53.4096 34.0621C52.425 34.4496 51.3657 34.7691 50.4385 35.2805C50.4212 35.2901 50.1132 35.468 50.0427 35.5022C49.9915 35.527 50.1352 35.4351 50.185 35.4073C50.8704 35.0248 51.5597 34.6544 52.2369 34.2568C52.7362 33.9636 53.2533 33.6927 53.7436 33.3845C54.2344 33.076 52.7388 33.9647 52.2193 34.2221C50.2624 35.1915 48.2094 35.8308 46.0659 36.2421C46.002 36.2544 42.9994 36.9629 44.5532 36.0347C45.184 35.6579 45.8221 35.2428 46.4693 34.8954C47.566 34.3069 44.2565 36.0522 43.0859 36.4749C40.5558 37.3885 37.9406 37.83 35.3014 38.2987C34.7897 38.3896 32.9756 38.7165 32.2569 38.8383C32.1111 38.863 31.7168 38.9829 31.8147 38.8722C31.971 38.6955 32.2687 38.5854 32.3761 38.3675C32.7567 37.5954 31.1909 39.6169 30.6245 40.2651C30.3357 40.5956 28.8966 41.8355 28.9437 42.3713C28.9547 42.4963 29.1976 42.4113 29.3199 42.3831C33.0091 41.5343 25.0104 43.2777 31.5389 41.8273C34.7464 41.1147 38.0165 40.5299 41.2963 40.2814C41.4664 40.2685 44.6214 39.8512 43.5367 41.0559C42.6219 42.0718 41.1297 42.8256 39.9067 43.3821C39.7719 43.4434 38.3745 44.1042 38.5132 43.3203C38.676 42.4 39.6656 41.4525 40.2473 40.7889C40.4052 40.6087 42.303 39.016 42.2318 38.8063C42.1171 38.4685 40.2093 39.0954 40.0708 39.139C38.0035 39.7891 36.0217 40.4541 33.8414 40.644C33.5237 40.6717 30.1184 41.0078 29.8762 40.3564C29.7334 39.9725 31.9588 38.8133 32.2315 38.6609C32.2562 38.6471 33.5056 37.8907 33.0388 38.5379C32.5233 39.2527 31.8327 39.8908 31.1689 40.4641C30.9685 40.6371 30.3103 41.0841 30.5237 40.9274C31.848 39.9553 33.6491 39.3625 35.1968 38.8983C36.3712 38.5461 37.2848 38.354 38.4874 38.1414C38.5686 38.127 40.0664 37.7997 40.444 37.9945C41.38 38.4772 38.069 40.8354 38.0221 40.8642C36.2861 41.9273 34.2955 42.6395 32.3335 43.1567C31.0919 43.484 32.2582 42.4524 32.6272 42.1206C33.1027 41.6932 33.7041 41.3056 34.3212 41.115C34.8393 40.9549 33.4376 41.7488 32.9609 42.0073C32.069 42.4911 31.118 42.9708 30.1469 43.2771C29.1224 43.6002 31.9596 42.1093 32.9381 41.6661C34.1747 41.106 35.4686 40.5495 36.7819 40.192C37.519 39.9914 36.6545 40.578 36.5615 40.6391C34.9013 41.7279 32.9759 42.4457 31.1389 43.167C30.1727 43.5464 27.3505 44.5959 28.1094 43.8876C29.0424 43.017 30.2925 42.3611 31.3921 41.7375C32.3644 41.1862 33.5125 40.5372 34.6516 40.4095C35.3796 40.3279 34.3626 41.6446 34.2899 41.7421C33.6496 42.601 32.6592 43.6958 31.6424 44.1184C30.1742 44.7288 33.8752 41.8381 35.1418 40.877C35.463 40.6332 36.3887 39.9146 36.1832 40.2616C35.8968 40.7452 35.1412 41.2176 34.7103 41.5586C34.012 42.111 33.2512 42.6198 32.4582 43.0272C32.1899 43.165 32.8024 42.5217 33.0359 42.3308C34.7045 40.9662 36.5584 39.8302 38.3333 38.6124C38.7057 38.3569 41.1364 36.6517 39.4594 38.1951C38.1515 39.3988 36.722 40.4439 35.2143 41.3816C34.5245 41.8106 33.0496 43.0843 32.1731 43.1124C31.6318 43.1297 32.6772 42.1485 33.0011 41.7145C33.997 40.38 35.0086 39.0189 36.1099 37.7682C37.3951 36.3087 33.222 40.3855 31.6451 41.5237C31.5495 41.5927 31.2525 41.7636 31.322 41.6683C31.4775 41.4552 31.9988 41.0294 32.1051 40.9429C32.7878 40.387 33.2682 40.0435 34.0058 39.5355C34.4001 39.2638 35.3583 38.4346 35.9146 38.3405C36.0462 38.3183 35.8843 38.6109 35.8263 38.7311C35.6635 39.0683 35.2333 39.8351 35.0817 40.1006C34.6142 40.919 33.013 43.237 33.6396 42.5329C34.3642 41.7185 35.1611 41.0463 36.0657 40.4294C36.4812 40.1461 37.024 39.8202 37.475 39.5786C37.7776 39.4165 38.5818 38.9259 38.4483 39.2422C38.0192 40.2594 36.6983 41.2617 35.8582 41.9073C34.9785 42.5834 33.9336 43.332 32.8977 43.7561C31.3738 44.3799 35.9337 42.1781 37.5803 42.1832C37.7339 42.1837 37.9758 42.2677 37.8607 42.4951C37.6724 42.8671 37.0075 43.3304 36.7379 43.5045C35.7891 44.1175 34.4224 44.9684 33.2498 45.0498C32.5685 45.097 33.3173 44.3317 33.4403 44.2406C34.6754 43.3253 36.5866 42.5485 38.1035 42.3196C38.7864 42.2165 37.0149 43.1931 36.386 43.4786C34.7577 44.2179 33.4135 44.4386 31.6428 44.1881C31.559 44.1762 29.1926 44.0673 30.2808 43.5515C32.5576 42.4721 35.5995 42.7278 38.0366 42.8076C38.6379 42.8272 39.2564 42.7985 39.8347 42.9646C39.9537 42.9987 39.6265 43.0998 39.5153 43.1545C38.4966 43.6555 37.5184 44.1428 36.3946 44.3772C35.8297 44.495 34.4654 44.785 33.9353 44.3284C33.6271 44.0629 35.2726 43.1498 35.3841 43.0803C35.9662 42.7176 36.642 42.2949 37.3294 42.1637C37.5653 42.1187 36.2539 43.2085 36.1515 43.2849C36.0834 43.3358 34.9278 44.2856 34.7415 43.9964C34.5053 43.6298 35.9379 42.8869 36.1174 42.7905C36.1676 42.7636 36.3296 42.7114 36.2808 42.7409C35.8681 42.9898 35.3699 43.2488 34.9439 43.445C33.794 43.9747 32.7994 44.1645 31.5442 44.0006C31.095 43.9419 29.877 43.813 30.2565 43.5655C30.752 43.2425 31.6784 42.9385 32.2768 42.9725C33.8773 43.0634 29.1009 43.987 27.5232 43.7029C27.0813 43.6233 27.2944 43.6169 27.6059 43.5352C28.7023 43.2476 29.9988 42.8012 31.1319 43.1461C31.726 43.327 31.6127 43.7896 31.1685 44.0758C30.7173 44.3665 30.1625 44.3711 29.6477 44.3074C29.4005 44.2767 29.9026 44.0675 29.9875 44.0233C30.1932 43.9162 29.4516 44.9174 29.3904 44.988C28.9215 45.5281 28.3941 45.9868 27.8101 46.397C27.5671 46.5677 27.6032 46.5351 27.7052 46.328C28.1506 45.4246 26.9635 46.4789 26.5682 46.6618C26.5229 46.6828 26.3846 46.7029 26.4185 46.6661C26.5283 46.5468 26.7645 46.3953 26.8832 46.3222C27.3108 46.0588 27.9004 45.6999 28.427 45.8502C29.0465 46.0271 29.4484 46.7858 29.6474 47.3375C29.7081 47.5057 29.7371 48.6433 29.947 48.5792C30.1767 48.5091 31.058 47.7452 30.5779 48.0393C29.6851 48.586 31.4507 46.5529 31.7282 46.3575C32.0144 46.156 31.309 47.0704 30.959 47.0724C30.4671 47.0751 32.4935 46.2057 32.026 46.0528C31.8957 46.0102 29.5645 46.6699 29.6766 46.3273C29.8726 45.7278 33.0805 45.6027 33.4234 45.5782C33.816 45.5502 34.2279 45.463 34.6042 45.5785C34.7193 45.6138 34.513 45.8284 34.4039 45.8791C33.3115 46.3871 31.1472 46.972 30.0175 46.2522C28.7397 45.4381 30.6745 43.3695 31.1119 42.6934C31.9584 41.385 29.791 42.2802 29.3199 42.3831C27.8357 42.7075 26.3445 42.7403 24.882 42.262C23.6528 41.8599 23.5832 40.9079 23.6384 39.7648C23.7409 37.6414 24.0038 35.5604 23.9474 33.431C23.9022 31.7233 23.8029 36.8472 23.844 38.555C23.8578 39.1279 23.9965 38.9191 24.1222 38.4838C24.4438 37.3708 24.7277 36.2357 24.925 35.0938C25.0843 34.1724 25.4438 32.5315 24.3694 34.1427C23.816 34.9725 23.3456 35.8613 22.8934 36.7493C22.7911 36.9501 23.0517 36.3261 23.1057 36.1072C23.5235 34.4142 23.5401 32.6249 23.745 30.9001C23.7495 30.862 23.9638 29.1523 24.061 28.8852C24.3202 28.1729 25.6196 29.4517 25.6666 29.4856C26.8527 30.3427 37.4163 38.2013 38.2284 36.0775C38.5347 35.2764 35.1791 35.399 35.0516 35.3884C34.1789 35.3153 28.9993 35.2065 29.9092 33.2615C30.3904 32.2329 31.5155 31.4385 32.4381 30.844C32.7109 30.6682 33.1147 30.3538 32.8003 30.8489C32.5622 31.224 32.2404 31.5566 32.0194 31.94C31.9772 32.0131 33.8164 31.2383 33.9725 31.1836C35.7678 30.5544 37.7255 30.0479 39.6176 29.8247C40.0769 29.7705 40.0576 29.8158 39.7268 30.0435C39.2536 30.3692 38.5621 30.7339 38.0741 30.9654C36.5418 31.6923 34.9809 32.1254 33.2733 31.9503C31.7001 31.7891 32.4292 31.0954 33.3064 30.4211C34.5311 29.4798 35.8701 28.6875 37.3977 28.3744C37.6969 28.3131 38.584 28.2237 38.3137 28.3658C37.2726 28.9131 36.1466 29.3316 35.0546 29.7634C34.3351 30.0479 32.1401 30.9161 34.0337 29.6856C35.2079 28.9225 36.4224 28.13 37.6784 27.5056C37.7723 27.4589 36.1424 28.3138 35.8445 28.4076C34.3294 28.8847 32.7408 29.1092 31.1758 29.3535C31.0262 29.3768 30.578 29.4337 30.7232 29.3909C32.1587 28.9678 33.8499 28.8308 35.3062 28.6719C37.4717 28.4355 40.3194 27.9069 42.467 28.6592C43.5799 29.0491 40.7484 30.3394 40.6448 30.4006C39.2754 31.2089 37.8954 32.0097 36.4715 32.7194C36.4222 32.744 36.2672 32.7998 36.315 32.7725C37.1461 32.2988 38.0437 31.9276 38.9486 31.6222C40.5203 31.0918 42.1623 30.7255 43.7828 30.3758C44.7281 30.1719 42.9766 31.101 42.9233 31.133C42.4173 31.4373 40.8135 32.4708 40.1701 32.0681C39.8431 31.8633 40.7167 31.5056 41.0576 31.3247C42.9439 30.3234 44.9857 29.5803 47.0067 28.9087C48.9795 28.2532 51.0086 27.6537 53.0435 27.2132C53.1145 27.1979 51.082 28.2249 50.9215 28.2945C49.075 29.0956 47.1634 29.7896 45.1675 30.1033C44.8982 30.1456 44.1506 30.1867 44.3554 30.0069C45.393 29.096 47.0877 28.5258 48.3038 27.9331C48.8624 27.6609 51.1221 26.1884 51.9105 26.429C52.0043 26.4576 49.2039 29.5114 49.142 29.5793C48.9809 29.7562 46.4086 32.3856 48.5043 31.3662C50.9567 30.1732 53.297 28.7517 55.7798 27.6157C56.7889 27.1541 55.8033 28.0274 55.5988 28.2472C55.1703 28.7076 54.6971 29.1332 54.2795 29.6025C53.2685 30.7387 56.7654 27.8395 58.093 27.0976C59.2186 26.4687 55.9898 28.6002 54.8589 29.2196C54.6293 29.3454 53.8986 29.7555 54.3851 29.1944C55.0523 28.425 55.7921 27.7205 56.4622 26.9536C56.9333 26.4146 56.8997 26.2599 56.1675 26.5652C55.1331 26.9964 54.1254 27.5468 53.1811 28.1494C52.9266 28.3118 52.8716 28.3521 53.0563 28.2615C53.8366 27.8789 53.8376 27.8519 54.8003 27.4715C55.8238 27.0671 56.8738 26.7217 57.9077 26.3464C58.8205 26.015 59.8253 25.4721 60.7854 25.2643C61.2349 25.167 60.3269 26.0843 60.313 26.0994C59.6673 26.8008 59.0132 27.4942 58.2869 28.1136C57.9777 28.3772 57.6064 28.7093 58.0816 28.16C58.4587 27.7241 58.7931 27.2866 59.0665 26.7787C59.2092 26.5133 58.7674 27.3102 58.695 27.6027C58.5833 28.0539 59.2693 27.8873 59.4622 27.7725C59.8871 27.5196 60.0505 27.0077 60.3754 26.6598C60.6916 26.3212 60.2075 26.8829 60.0184 26.9788C58.8278 27.5825 58.1294 27.048 58.3432 25.7623C58.413 25.343 58.627 24.9951 58.7197 24.5933C58.7754 24.3524 58.0826 24.8245 57.9685 24.7787C57.7646 24.697 58.5126 23.639 58.5608 23.5772C58.7495 23.3351 59.5085 22.8465 59.2119 22.9257C58.9171 23.0044 58.5682 23.3 58.3233 23.4602C57.5093 23.9924 58.174 23.5754 57.2406 24.1768C56.7826 24.4719 55.3242 25.117 55.8664 25.0623C56.4466 25.0037 57.387 24.0528 57.9301 24.7685C58.0855 24.9732 57.8732 25.7183 58.2555 25.6408C58.8584 25.5187 60.1751 24.2126 59.6156 25.3476C59.2056 26.1793 58.9989 26.4512 59.9456 25.8054C60.0808 25.7132 61.5254 24.7005 61.2768 24.6903C60.0292 24.6392 58.7151 25.0056 57.4616 25.0672C56.6467 25.1072 58.7924 23.6644 58.9956 23.4877C59.4032 23.1333 57.9148 23.5567 57.384 23.657C55.8506 23.9467 54.0363 24.3362 52.4717 24.0401C51.6249 23.8798 52.4206 23.196 52.7162 22.9276C53.1417 22.5413 54.4522 21.4473 53.9458 21.7191C53.7493 21.8245 52.0478 23.0523 51.999 22.9735C51.8075 22.6641 54.0428 21.0818 54.3522 20.9122C54.8057 20.6637 54.8704 20.7148 54.5138 21.1481C53.9964 21.7767 53.4858 22.4353 52.9152 23.017C52.0173 23.9327 57.2534 20.447 56.4135 21.416C55.8789 22.0328 55.2371 22.5702 54.6469 23.1326C54.5529 23.2222 53.8608 23.6722 54.3352 23.4479C54.901 23.1804 55.8271 22.8273 56.4639 22.9343C56.6767 22.9701 55.4839 24.399 55.355 24.5497C55.1213 24.8229 54.8451 24.9769 55.3208 24.6544C56.03 24.1734 56.7868 23.7433 57.5635 23.3809C58.5445 22.923 55.9475 25.0553 55.8269 24.8605C55.7211 24.6894 56.4064 23.6049 56.4736 23.4253C56.8346 22.4613 55.7946 23.18 55.4459 23.3789C53.6133 24.4241 55.0782 23.6349 55.0746 23.0048C55.0712 22.403 53.2157 22.5407 53.2952 22.4576C54.3034 21.405 54.1592 24.0223 54.2927 24.5557C54.6192 25.8602 55.5104 24.4008 56.2421 24.3705C56.3806 24.3648 56.2432 24.5568 56.2435 24.6143C56.2449 24.8547 57.2334 24.2763 57.2481 24.2673C57.3489 24.2056 58.2889 23.4538 58.4283 23.564C58.708 23.7852 58.2816 24.2629 58.2392 24.617C58.2056 24.8984 57.9137 26.1872 58.1798 26.4284C58.3924 26.6211 59.3455 25.9143 59.5208 25.8218C60.4003 25.3577 59.1798 26.6271 59.1578 26.9105C59.1196 27.4014 59.7989 26.163 60.1127 25.7836C60.1231 25.771 61.0849 24.5512 60.7814 25.1668C60.5251 25.6867 59.4301 27.3092 60.1686 25.8111C60.3126 25.5189 60.9799 24.5669 60.8457 24.2261C60.8209 24.163 59.6633 24.6685 59.5354 24.7002C58.7392 24.8971 60.4591 22.9189 58.9683 24.1949C58.7166 24.4103 58.3634 24.8204 58.025 24.9107C57.5787 25.0298 58.5733 24.1659 58.8126 23.7709C59.4792 22.6707 57.7487 24.4497 57.5011 24.6525C57.1755 24.9191 57.8409 23.8824 58.017 23.5002C58.6623 22.0993 57.7388 22.8435 56.95 23.2868C56.0068 23.8169 56.0439 23.362 56.3329 22.5658C56.3944 22.3964 56.5732 21.8954 56.4693 22.0426C56.2371 22.3715 55.7117 22.3649 55.6874 22.3605C55.4052 22.3093 53.589 23.9753 54.006 23.1293C54.2571 22.62 54.5621 22.1311 54.8649 21.6512C55.1615 21.1811 54.118 22.4766 53.7084 22.8523C53.6169 22.9363 52.2543 24.3167 52.0861 24.2059C52.0168 24.1603 52.3747 23.0431 52.3924 22.9503C52.6972 21.3586 50.1096 23.1829 49.5495 23.4157C48.8995 23.6859 50.1678 21.9678 50.0098 22.2881C49.9562 22.3969 49.5577 23.0169 49.6756 22.9309C50.1447 22.5887 50.576 22.1615 51.1119 21.9197C51.7046 21.6522 51.1165 22.6147 51.0538 22.742C50.8319 23.1921 49.9822 24.2612 50.4661 24.128C50.8239 24.0295 51.1725 23.3417 51.4738 23.1053C52.1132 22.6036 50.1583 24.0652 49.4545 24.4716C48.9918 24.7387 48.5251 24.999 48.0588 25.2596C47.9462 25.3226 47.6679 25.5386 47.7044 25.4149C47.8846 24.805 48.5811 24.1219 48.9761 23.6453C49.2459 23.3198 49.3979 23.236 49.1009 23.5332C48.7063 23.928 48.2682 24.3711 47.7942 24.669C47.6379 24.7673 47.9575 24.3357 48.0667 24.1869C48.1307 24.0995 47.0866 24.9323 47.0262 24.9764C46.913 25.0592 45.3013 26.0923 45.4881 25.8245C46.1214 24.9165 47.0074 23.9923 47.8105 23.227C48.2712 22.7879 47.0518 24.2506 46.6348 24.7313C46.5396 24.841 46.0647 25.3801 45.88 25.5227C45.7854 25.5957 45.9679 25.2978 46.0384 25.2014C46.3262 24.8077 47.2385 23.6633 46.9374 24.047C46.4704 24.6419 45.9663 25.2074 45.5054 25.807C45.2161 26.1833 46.2773 24.7187 45.8222 25.1643C45.3112 25.6647 44.7482 26.1457 44.1477 26.5356C43.431 27.001 44.9015 25.3128 44.9866 25.2213C46.3959 23.7068 45.288 25.7559 45.6781 25.5448C46.3698 25.1705 46.9503 24.5347 47.5503 24.0365C48.2544 23.452 46.9061 25.1735 46.8606 25.242C46.6364 25.5795 45.9783 26.57 46.2954 26.318C46.8244 25.8975 47.3316 25.4055 47.9535 25.1209C48.269 24.9766 47.6237 25.7362 47.4047 26.0052C47.0177 26.4806 46.8176 26.7395 46.4747 27.2225C46.2758 27.5027 46.886 26.6717 47.097 26.4005C47.6368 25.7067 48.2896 24.9369 47.8496 26.4589C47.7338 26.8596 46.2058 30.7047 47.094 30.8099C47.5367 30.8623 48.8249 29.7576 48.9474 29.657C49.6866 29.05 50.3814 28.3907 51.1101 27.771C51.1445 27.7418 53.2894 25.985 52.9629 26.5136C52.331 27.5365 51.4544 28.461 50.6593 29.3548C50.5232 29.5078 49.4781 30.6597 49.2886 30.8672C49.1524 31.0163 48.8598 31.5033 48.8662 31.3014C48.881 30.8297 49.8784 29.9169 50.1038 29.6714C50.8857 28.8201 53.3502 26.3796 52.5489 27.2126C51.9589 27.8258 51.38 28.465 50.8986 29.1688C50.7181 29.4327 51.3763 28.7435 51.6019 28.517C52.1957 27.921 52.7832 27.2577 53.4553 26.7477C54.16 26.2129 52.0544 27.8305 51.3222 28.3271C51.2068 28.4054 49.4837 29.8021 49.9598 28.8363C50.5078 27.7247 51.15 26.6564 51.7035 25.5455C52.0276 24.8953 52.9022 23.5458 51.666 25.0581C50.7489 26.18 50.6469 26.291 49.6731 27.4099C49.3961 27.7282 49.1143 28.0422 48.8391 28.362C48.6501 28.5817 48.0444 29.0037 48.3276 29.065C48.9023 29.1893 50.7807 27.2101 51.0881 26.9526C51.5715 26.5477 52.4028 25.8242 52.9777 25.4443C53.3292 25.2121 53.5459 25.1469 53.1561 25.5756C51.8132 27.0528 50.1568 28.2276 48.7804 29.6789C48.123 30.372 48.3508 30.16 47.9674 30.6587C47.7541 30.9361 48.3606 30.0788 48.5791 29.8054C49.1059 29.1459 49.7428 28.2646 50.4554 27.7956C51.5201 27.095 48.8636 29.7874 48.0271 30.7489C47.0654 31.8544 46.0953 32.9551 45.1411 34.067C44.9074 34.3394 45.0211 34.2487 45.2456 34.0664C45.9383 33.5041 46.5995 32.9094 47.3294 32.3933C47.4824 32.2851 49.4262 30.9059 49.6178 31.1857C49.8433 31.5151 48.1052 33.3039 47.959 33.4764C47.6153 33.882 46.6165 35.1252 46.9629 34.722C47.8234 33.7202 48.6264 32.672 49.5092 31.6879C49.558 31.6335 50.0384 31.0968 50.2087 30.9734C50.276 30.9247 50.1511 31.1326 50.0985 31.1969C49.3556 32.1053 48.4347 32.8843 47.563 33.6633C47.2599 33.934 46.346 34.7236 46.5919 34.4002C47.326 33.4346 48.3937 32.3416 49.4292 31.7092C49.5843 31.6145 49.2808 32.0427 49.1812 32.1948C48.6408 33.0199 48.4729 33.2812 47.9282 34.1906C47.6094 34.7228 47.146 35.5127 46.8418 36.0949C46.757 36.2573 46.5073 36.5193 46.6636 36.6149C46.9736 36.8044 49.0823 34.3377 49.0957 34.3233C50.0012 33.352 50.3486 32.951 51.1757 31.9885C51.3805 31.7501 51.9341 30.9961 51.7952 31.2779C51.3835 32.113 50.489 32.9232 49.8998 33.6257C49.225 34.4302 48.4787 35.1835 47.8305 36.0092C46.9425 37.1405 51.4656 31.5513 50.5806 32.6849C49.3922 34.2071 48.1606 35.6993 46.9351 37.1915C46.7861 37.373 46.3121 37.8906 46.4434 37.6959C46.9395 36.9597 47.883 35.7157 48.3652 35.1007C49.2849 33.9276 50.232 32.7879 51.1947 31.6505C51.5837 31.191 51.8843 30.6263 52.3852 30.2924C52.7512 30.0484 51.8548 30.9946 51.5761 31.3349C50.7193 32.3805 49.841 33.4086 48.95 34.4251C48.0878 35.4088 50.613 32.4033 51.3741 31.3395C51.467 31.2096 52.4922 29.7398 52.4033 29.7977C51.2604 30.5416 50.0971 31.2537 48.9607 32.0079C48.901 32.0476 47.4818 33.0289 47.1979 33.1707C47.118 33.2107 46.9722 33.2945 46.9335 33.214C46.7822 32.8993 47.1551 32.5491 47.3111 32.2367C47.8445 31.1686 48.5273 30.2038 49.2866 29.2859C49.384 29.1683 49.6914 28.8307 49.6052 28.9567C49.4247 29.2206 48.9532 29.7939 48.789 29.9784C47.7714 31.122 46.6148 32.1636 45.3863 33.0765C44.5441 33.7023 44.3959 33.6343 44.8864 32.7519C45.7944 31.1185 46.9191 29.6723 48.254 28.3688C48.2775 28.3459 47.4168 28.9926 47.3661 29.0251C45.3325 30.3266 43.1693 31.5973 40.9037 32.4471C40.4272 32.6258 39.1134 33.1836 38.5177 33.0248C38.2315 32.9485 38.7513 32.4803 38.8823 32.2147C39.3987 31.1671 39.8946 30.1162 40.5646 29.1541C40.8832 28.6967 41.3866 28.0763 41.7472 27.6358C41.9235 27.4205 42.3794 26.7779 42.3465 27.0543C42.2614 27.7675 41.2203 28.6257 40.7907 29.1006C39.9468 30.0336 39.095 30.9585 38.2815 31.9185C37.3996 32.9593 37.965 32.062 38.2691 32.1903C38.5086 32.2913 37.7445 32.7608 37.6531 32.8764C37.2905 33.335 38.6073 32.744 38.7524 32.6543C39.2168 32.3668 37.9307 33.741 37.4063 33.5883C37.2022 33.5289 38.0477 32.3185 38.0183 32.1708C37.9322 31.7385 37.1818 32.454 36.781 32.6375C34.5664 33.6515 32.3263 34.4326 29.961 35.0236C28.8915 35.2908 26.0232 36.1794 26.6641 35.2825C27.345 34.3297 28.3235 33.5423 29.2486 32.8403C29.7079 32.4917 31.0214 31.405 30.6815 31.8709C30.0038 32.8001 28.8094 33.644 27.7967 34.1651C26.9654 34.5929 29.4148 33.2231 30.262 32.8276C31.3907 32.3008 31.385 32.5617 30.6977 33.4939C30.3886 33.9131 29.5296 34.9771 29.2107 35.3831C28.9729 35.6858 28.5006 35.9293 28.5263 36.3134C28.544 36.5782 28.9698 36.0218 29.1926 35.8778C30.6045 34.9649 32.0967 34.183 33.5739 33.3836C34.6244 32.8151 37.4545 30.9448 36.8748 31.9892C36.0783 33.4242 34.96 34.7716 33.9233 36.0391C33.1548 36.9787 34.4292 35.3949 34.6085 35.2481C35.2753 34.702 33.4649 36.7833 34.3422 36.2109C35.463 35.4797 36.5228 34.6448 37.6942 33.9907C38.6202 33.4737 36.8075 35.3599 36.741 35.4311C36.7285 35.4445 35.1209 36.8879 35.139 36.6731C35.1612 36.4083 35.7517 35.6343 35.8084 35.5617C36.5441 34.62 37.4044 33.774 38.256 32.9392C38.3697 32.8277 39.0594 32.1477 39.3196 31.944C39.4761 31.8215 39.0459 32.2341 38.89 32.3574C38.4325 32.7196 35.573 35.1259 35.0159 34.6154C34.5185 34.1596 35.2937 33.2881 35.5447 32.6619C36.0232 31.4682 36.437 30.5365 36.9401 29.3557C37.193 28.762 37.7315 28.1646 37.595 27.5339C37.5747 27.4404 37.4082 27.4402 37.316 27.4658C36.4191 27.7152 35.6072 28.2068 34.7377 28.5392C33.2871 29.0939 31.3025 29.7834 29.8435 30.2596C29.4128 30.4001 26.8337 31.2434 26.0879 31.3257C24.514 31.4994 27.4458 28.5116 27.5135 28.4338C28.603 27.1815 30.0864 25.9759 30.9816 24.569C31.1275 24.3397 30.5304 24.8731 30.3155 25.0395C28.9233 26.1179 27.5124 27.1584 26.0561 28.1495C25.5965 28.4622 23.0508 30.3642 24.8246 28.4107C25.0078 28.2088 27.6989 25.7835 27.7042 25.8101C27.8015 26.2957 26.2395 27.719 25.9549 28.1256C25.8769 28.2371 25.7368 28.5737 25.8631 28.5232C26.3519 28.328 26.7711 27.9906 27.2274 27.7284C28.261 27.1343 29.486 26.4612 30.5224 25.9056C31.3421 25.4662 32.1305 24.6777 33.0584 24.7419C33.444 24.7685 32.261 27.7709 32.1681 28.0627C31.7757 29.2953 32.2299 28.8816 32.9878 28.2844C33.2124 28.1074 35.806 25.8817 35.17 27.3805C35.1098 27.5223 34.1357 29.2503 34.4565 29.321C35.1344 29.4704 35.7618 28.1817 36.4504 28.3763C36.8022 28.4757 36.3987 29.5798 36.4028 29.8115C36.4068 30.0414 36.0243 30.0768 35.8619 30.2395C35.8188 30.2826 34.9246 31.187 34.988 30.9201C35.2233 29.9299 35.7062 29.0022 35.9537 28.0099C36.2008 27.0194 35.7453 27.3746 35.1829 27.8123C33.8309 28.8645 34.8767 28.0709 33.345 29.2332C32.8488 29.6098 31.718 30.7605 31.7096 30.1376C31.689 28.6076 32.4211 26.8793 32.6579 25.3606C32.8195 24.3235 32.7434 24.2272 32.0077 24.9533C31.8567 25.1024 29.8866 26.9426 29.8803 26.9088C29.7996 26.4791 30.1847 26.0877 30.3749 25.694C30.7313 24.9564 31.0833 24.1572 31.5396 23.4722C31.9926 22.7923 30.7081 24.8815 30.2313 25.545C30.143 25.6678 29.8605 26.0228 29.9512 25.9018C30.2641 25.4844 30.6959 24.9521 31.0024 24.5619C31.2006 24.3096 32.703 21.9224 31.978 23.3931C31.8704 23.6114 32.4192 22.5691 32.4205 22.8125C32.4215 22.9813 31.8157 24.2704 32.3065 24.2063C32.7829 24.144 34.7407 23.1249 34.6935 23.1862C34.28 23.7242 33.7754 24.1783 33.3823 24.7366C32.9409 25.3633 33.4912 24.4452 33.5575 24.3107C33.7067 24.008 33.8559 23.7053 34.0051 23.4026C34.2098 22.9875 34.0879 22.6898 34.1517 22.2245C34.277 21.3107 34.886 20.3994 33.5531 21.0785C32.4132 21.6594 31.3063 22.304 30.164 22.8809C29.4616 23.2357 30.1846 22.2758 30.3019 22.0199C30.5415 21.4974 31.1042 20.625 31.0499 20.0269C31.0369 19.8835 30.6106 20.2086 30.5214 20.1831C30.2076 20.0935 30.97 17.5565 31.0103 17.3244C31.0338 17.1889 31.1638 16.8302 30.8757 16.9281C29.7776 17.301 28.7491 18.1258 27.7791 18.7358C27.4071 18.9698 26.6068 19.7318 26.5842 19.2929C26.5791 19.1951 26.5085 18.8418 26.6065 18.9305C26.7843 19.0916 26.8815 18.8307 26.7158 19.1667C26.5176 19.5688 26.3494 19.8975 26.2906 20.3464C26.2518 20.6427 26.1542 21.2777 26.5726 20.9369C26.7737 20.773 28.3455 19.6653 28.1695 20.0223C28.0871 20.1895 27.9258 20.5166 28.111 20.141C28.3836 19.5881 28.0662 20.0794 28.1851 20.3078C28.3317 20.5894 26.7225 21.8169 26.5021 22.0309C26.3637 22.1653 25.9758 22.577 26.0584 22.4026C26.5103 21.4479 27.001 20.5088 27.5227 19.5906C27.6203 19.419 27.9345 18.9236 27.7984 19.0666C26.5062 20.4237 29.1417 17.9205 26.5177 20.467C25.4041 21.5477 24.5348 22.2768 23.2837 23.2229C22.8028 23.5865 22.3201 23.9509 21.8058 24.2656C21.6115 24.3846 21.3712 24.6232 21.1699 24.5165C20.9809 24.4163 22.8794 21.7147 23.0783 21.4024C23.249 21.1345 23.2309 21.1634 23.3266 20.9692C23.3704 20.8803 23.3338 20.9586 23.2298 21.0951C22.6516 21.8546 22.0053 22.5588 21.3683 23.2685C20.8144 23.8857 20.7745 23.965 20.9807 23.0861C21.2728 21.841 21.5169 20.5852 21.764 19.3306C21.9394 18.4397 20.5941 20.2871 20.4676 20.4281C20.2634 20.6554 19.2723 22.1864 18.9454 22.2478C18.726 22.289 19.1428 21.8473 19.2415 21.647C19.5101 21.1022 19.7813 20.5586 20.0473 20.0125C20.082 19.9413 20.4198 19.2623 20.4808 19.0627C20.5033 18.9888 20.3532 19.157 20.3145 19.2238C19.4238 20.7611 18.6666 22.4147 17.921 24.0264C17.4777 24.9845 18.325 24.0044 18.4842 23.8351C19.0634 23.2193 19.5543 22.486 20.1835 21.9203C20.5683 21.5743 20.0864 22.6623 20.073 22.7081C19.8027 23.6301 19.8502 24.2125 20.8834 23.7414C22.1982 23.142 20.1298 26.4784 21.0931 26.3455C21.7761 26.2513 22.4592 25.4565 23.0016 25.0808C23.3898 24.812 22.6625 26.3791 22.6027 26.5947C22.2899 27.7204 23.0053 27.1842 22.6391 28.1061C21.9066 29.9497 23.6951 28.3103 24.2786 27.9505C24.3448 27.9098 22.7326 30.3866 23.4329 29.9127C23.4828 29.879 24.518 29.1624 24.5022 29.2937C24.4666 29.5883 23.346 31.5196 23.4632 31.5774C23.711 31.6995 25.7864 28.9828 26.0175 28.7209C27.3776 27.1789 25.6977 28.9856 25.4873 29.1975C24.4659 30.2262 23.4657 31.2733 22.4574 32.3145C21.2947 33.515 22.7179 32.0407 23.0323 31.747C23.623 31.1951 23.4884 31.4122 23.1872 32.0317C22.927 32.5669 21.8112 34.0768 21.9483 34.6858C22.0565 35.1663 22.7449 33.7624 23.2118 33.9193C23.5501 34.033 22.718 35.9455 22.6463 36.1586C22.1664 37.5828 24.0365 35.5969 24.5955 35.9386C24.9616 36.1624 23.9875 37.9311 24.4129 38.1408C24.9547 38.4079 25.6304 37.5184 26.2078 37.7406C26.3721 37.8038 27.1981 37.5429 27.1832 37.7699C27.1677 38.0052 26.2221 39.7821 26.5529 39.6473C27.932 39.0853 29.2297 38.0565 30.4962 37.2845C30.8147 37.0903 31.4557 36.4431 31.5105 36.812C31.5914 37.3564 31.0578 37.8175 30.7805 38.2929C30.3972 38.9503 29.8568 39.7972 29.4273 40.4391C29.2693 40.6753 28.6606 41.2229 28.9297 41.1315C29.1744 41.0484 29.3072 40.7774 29.512 40.6197C30.4196 39.9206 31.3858 39.3012 32.35 38.6846C32.4115 38.6452 33.4687 37.957 33.7384 37.8408C34.0425 37.7099 33.7884 38.0875 33.768 38.1332C33.3914 38.9758 32.9571 39.7958 32.5491 40.6234C31.222 43.3155 33.669 40.1068 33.992 40.7964C34.1696 41.1755 33.445 42.4503 33.2091 42.7721C32.9248 43.1599 31.4485 44.4541 32.2472 43.2965C32.9049 42.3435 31.7856 42.9527 31.0934 43.1185C30.8419 43.1787 29.3675 43.9071 29.694 43.2448C29.7253 43.1812 27.3204 44.3874 27.6921 44.6284C28.9459 45.4411 30.4206 45.3522 31.8184 45.6813C32.1755 45.7654 30.074 46.6473 30.2448 46.4251C30.608 45.9526 31.4645 45.7178 31.9668 45.4332C32.8448 44.9355 30.8035 45.2663 30.5623 45.2879C29.2216 45.4076 29.9187 45.0349 30.6269 44.3819C31.3094 43.7525 29.5136 44.2368 29.3931 44.2426C27.6582 44.3261 28.4896 42.9235 28.9728 41.9776C29.3841 41.1725 28.7293 41.6098 28.2858 41.8213C27.8203 42.0432 26.2744 43.0626 25.7382 42.7795C25.0252 42.4031 25.9268 38.1471 24.5477 39.8049C23.929 40.5486 22.7102 43.2072 23.113 42.3277C23.4648 41.5595 23.772 40.7612 23.9772 39.9405C24.1886 39.0951 23.9381 39.299 23.7122 39.8793C23.6517 40.0345 23.3562 41.5174 23.6794 40.8616C23.9408 40.3314 24.7844 38.7808 24.5868 39.338C24.4498 39.7242 24.1993 41.6736 24.6915 41.8381C24.8387 41.8873 25.4865 40.6616 25.5343 40.5865C25.7615 40.2292 26.3411 39.1131 26.2248 39.5203C25.9469 40.4937 25.8603 41.5004 25.8203 42.5074C25.7888 43.2975 26.7347 40.937 27.521 40.8539C27.5659 40.8491 26.4497 43.407 26.7117 43.0945C27.7289 41.8813 29.0637 40.7189 29.7691 39.2878C30.0102 38.7988 30.2549 38.3116 30.4922 37.8209C30.5651 37.6702 31.1969 36.6231 30.9859 36.4319C30.7291 36.1991 29.6045 37.4261 29.4495 37.576C29.3678 37.6549 28.5641 38.4423 28.8306 37.7745C29.1511 36.9716 29.6762 36.2362 30.0784 35.4722C30.1653 35.3072 30.6432 34.3497 30.5986 34.4523C30.0285 35.7624 29.4281 37.0863 28.621 38.2703C28.1017 39.032 30.5483 35.1278 30.0355 35.8939C29.4436 36.7782 29.0797 37.8085 28.6936 38.7923C28.583 39.0741 28.1893 39.4072 28.378 39.6439C28.4288 39.7076 28.5052 39.5415 28.5617 39.4827C28.9969 39.029 29.4041 38.5493 29.825 38.0824C30.356 37.4933 31.9574 35.7339 31.4172 36.3145C31.1058 36.6491 30.2485 37.6471 30.3773 37.2085C30.6574 36.2553 31.613 35.2188 32.1657 34.4086C32.285 34.2336 33.3576 33.0519 32.6079 33.7757C31.9337 34.4265 32.0829 34.1439 32.5298 33.5114C33.0301 32.8033 33.5368 32.1773 33.7643 31.3241C33.9385 30.6709 34.0571 30.1537 34.4334 29.544C34.6468 29.1984 35.3297 27.9726 35.2131 28.843C35.1465 29.3401 34.9273 30.0649 35.0417 30.5646C35.1631 31.0944 36.945 30.3206 37.0324 30.2956C37.283 30.2238 40.2365 29.1238 40.2343 29.8595C40.2318 30.668 39.6051 31.5194 39.3982 32.2953C39.2333 32.9137 40.0188 32.2816 40.1568 32.1831C40.2737 32.0997 41.6209 30.9316 41.6442 30.98C42.0015 31.7219 40.5472 34.9548 42.1949 34.1255C43.0197 33.7103 43.825 33.2481 44.6395 32.8125C45.3109 32.4534 45.6184 32.2272 45.4111 33.1495C45.1553 34.287 44.8782 35.4372 44.8769 36.6111C44.8757 37.6471 46.3298 36.1748 46.6356 35.9672C47.0894 35.6592 47.6755 35.2753 48.1556 34.9974C48.3501 34.8848 48.8788 34.5304 48.7741 34.7292C48.3714 35.4932 47.0031 36.1998 46.3263 36.7004C45.2937 37.4641 46.2473 36.4006 46.4487 36.1703C46.7619 35.8119 47.2953 35.253 47.6118 34.9029C47.8456 34.6442 48.5171 33.8889 48.2025 34.0393C46.8619 34.6801 45.6287 35.5363 44.2788 36.1686C44.1673 36.2209 43.8274 36.3111 43.9134 36.2229C44.1957 35.9334 45.0683 35.2757 45.2586 35.1322C45.3655 35.0515 48.1902 32.9808 48.2715 33.3179C48.3805 33.7698 47.0923 35.6933 48.4966 34.9397C49.3096 34.5034 50.2869 33.3386 51.2034 33.1829C51.2841 33.1692 50.3246 34.8486 50.2522 34.9716C49.6338 36.0217 50.8388 35.0028 51.0664 34.8346C52.0721 34.0918 53.0583 33.1954 54.1641 32.602C54.5999 32.3681 53.3453 33.1748 52.8831 33.3511C52.7191 33.4136 52.2512 33.4662 52.357 33.3262C52.5973 33.0083 53.472 32.457 53.7026 32.305C54.0578 32.071 54.8438 31.5888 55.2366 31.3246C55.3784 31.2292 55.7389 30.8867 55.6633 31.0401C55.5058 31.3598 55.244 31.6168 55.0239 31.897C55.0139 31.9097 53.6815 33.5247 53.6571 33.4895C53.5425 33.324 54.8636 31.9842 55.0199 31.817C55.2379 31.5838 55.9158 30.9169 55.7338 31.179C55.4547 31.581 54.8856 31.8934 54.5065 32.189C53.9034 32.6595 55.5792 31.7208 55.7052 31.6598C56.1048 31.4665 56.9828 30.6415 56.9035 31.0784C56.8335 31.4638 55.9236 32.1592 55.6781 32.4193C54.5641 33.5996 56.0012 32.2128 56.2054 32.0366C57.0402 31.3161 57.881 30.6077 58.757 29.9429" stroke="#4A3AFF" stroke-width="0.516273" stroke-linecap="round"/>
</svg>
