<svg width="174" height="237" viewBox="0 0 174 237" fill="none" xmlns="http://www.w3.org/2000/svg">
<path opacity="0.57" d="M1.07019 187.423C0.980071 187.191 0.914504 187.066 0.914504 187.066C0.914504 187.066 3.27957 184.211 6.78184 180.054C8.34069 178.207 10.1484 176.032 12.0322 173.744C19.8575 164.282 29.9863 151.939 34.764 145.911C66.0237 106.547 98.6941 65.6599 130.541 26.8379C134.039 22.5824 137.463 18.4885 140.385 14.9533C146.345 7.73888 150.73 2.46075 152.057 0.853051C152.305 0.524472 152.46 0.348775 152.46 0.348775C152.505 0.464816 152.507 0.514036 152.57 0.589659C154.508 5.09604 155.467 7.34483 157.405 11.8512C157.428 11.9092 157.43 11.9584 157.452 12.0165C161.89 22.4305 164.099 27.6331 168.555 38.0068C168.934 38.8947 169.114 39.3589 169.513 40.2556C171.273 44.347 172.144 46.4129 173.885 50.5448C173.885 50.5448 173.752 50.7293 173.501 51.0086C172.425 52.337 168.984 56.5205 162.302 64.8279C159.287 68.5652 155.602 73.1757 151.147 78.7139C149.611 80.6186 147.922 82.7482 146.174 84.9006C143.486 88.246 140.722 91.704 126.634 109.363C100.394 142.221 74.4572 175.065 47.8682 206.758C42.39 210.939 39.4059 216.43 39.4059 216.43C39.4059 216.43 39.3483 216.502 39.2312 216.597L39.2126 216.638C38.6533 217.268 36.7039 219.431 33.17 224.3C31.7939 226.177 30.4424 228.161 29.2245 229.96C26.6181 233.824 24.6881 236.963 24.6881 236.963C24.6881 236.963 22.0695 233.083 19.4739 228.779C19.1294 228.244 18.8014 227.62 18.4755 227.045C17.9958 226.162 17.4771 225.311 17.0385 224.446C16.3395 223.131 15.7041 221.891 15.2535 220.731C15.0057 220.093 14.893 219.803 14.6452 219.164C12.8773 214.876 9.12821 206.015 5.98943 198.769C5.63294 197.939 5.29696 197.118 4.963 196.346C4.87488 196.163 4.85035 196.056 4.76223 195.873C2.96328 191.813 1.49626 188.476 1.07019 187.423Z" fill="#FDC930"/>
</svg>
