<svg width="301" height="36" viewBox="0 0 301 36" fill="none" xmlns="http://www.w3.org/2000/svg">
<path d="M299 10.7094C237.783 8.33872 177.093 3.91827 115.764 2.93452C80.5117 2.36904 -24.9118 0.713725 9.98325 3.90637C67.3394 9.15406 126.618 8.98544 184.367 12.5144C206.742 13.8817 228.938 15.7144 251.199 17.6514C259.766 18.3968 266.457 19.6564 252.748 19.1786C191.564 17.0461 130.698 12.307 69.5127 10.0153C62.9834 9.77072 43.6385 9.65152 49.9278 10.7789C72.981 14.9112 97.7128 16.5392 121.297 18.8315C149.696 21.592 178.556 23.3159 206.718 26.9536C216.835 28.2603 230.384 28.668 239.802 31.327C256.47 36.0324 203.305 33.1384 185.031 32.9236C154.619 32.5662 124.242 31.4648 93.8557 30.7022" stroke="#1C1C1C" stroke-width="4" stroke-linecap="round"/>
</svg>
